<?xml version="1.0" encoding="iso-8859-1"?>
<!-- Generator: Adobe Illustrator 19.0.0, SVG Export Plug-In . SVG Version: 6.00 Build 0)  -->
<svg version="1.1" id="Layer_1" xmlns="http://www.w3.org/2000/svg" xmlns:xlink="http://www.w3.org/1999/xlink" x="0px" y="0px"
	 viewBox="0 0 512 512" style="enable-background:new 0 0 512 512;" xml:space="preserve">
<g>
	<g>
		<g>
			<path d="M472.671,193.438c-24.124-32.034-58.122-56.301-96.055-68.641C346.878,54.363,277.106,4.806,195.974,4.806
				C87.913,4.806,0,92.719,0,200.78c0,86.905,56.866,160.765,135.338,186.36c14.512,34.52,38.425,64.005,69.404,85.413
				c32.795,22.664,71.276,34.641,111.285,34.641C424.087,507.194,512,419.281,512,311.22C512,268.334,498.4,227.606,472.671,193.438
				z M459.874,203.074c22.014,29.234,34.352,63.705,35.929,100.14l-36.467-0.002c-1.845-32.718-14.921-63.595-36.34-87.63
				l25.805-25.805C452.699,194.025,456.4,198.46,459.874,203.074z M437.452,178.469l-25.761,25.761
				c-6.198-5.561-12.91-10.616-20.096-15.077c-0.909-15.449-3.615-30.421-7.913-44.714
				C403.396,152.481,421.676,164.074,437.452,178.469z M305.934,388.958c-10.818-1.372-21.384-4.253-31.58-8.579
				c17.645-7.73,33.937-17.985,48.424-30.307v14.439c0,2.33,1.015,4.544,2.779,6.066c1.464,1.263,3.324,1.944,5.231,1.944
				c0.391,0,0.785-0.029,1.178-0.086c7.632-1.135,25.382-5.831,25.382-24.899c0-10.386-5.02-16.7-11.279-20.898
				c4.696-5.591,9.087-11.447,13.146-17.543c14.117,8.6,20.252,19.791,20.252,36.348c0,24.044-18.039,40.405-48.253,43.764
				c-4.056,0.452-7.125,3.88-7.125,7.961v13.842c0,3.127-2.45,5.576-5.577,5.576c-3.178,0-5.574-2.397-5.574-5.576v-14.104
				C312.937,392.87,309.937,389.466,305.934,388.958z M203.984,380.547v-36.444c33.556-1.854,64.072-15.288,87.618-36.362
				l25.763,25.763C287.179,361.136,247.572,378.628,203.984,380.547z M338.797,353.331v-12.082c2.529,2.304,2.529,4.373,2.529,6.285
				C341.327,348.958,341.327,351.304,338.797,353.331z M328.694,322.176l-25.763-25.762c21.076-23.547,34.511-54.064,36.368-87.622
				l36.442,0.002C373.821,252.382,356.328,291.99,328.694,322.176z M375.741,192.775l-36.442-0.002
				c-1.854-33.558-15.288-64.076-36.363-87.623l25.761-25.761C356.331,109.576,373.823,149.185,375.741,192.775z M203.984,21.014
				c43.589,1.919,83.198,19.413,113.385,47.047l-25.761,25.761c-23.547-21.078-54.065-34.513-87.625-36.368V21.014z
				 M323.507,200.779c0,70.321-57.211,127.532-127.533,127.532S68.441,271.1,68.441,200.779
				c0-70.323,57.211-127.534,127.533-127.534S323.507,130.456,323.507,200.779z M187.964,21.014v36.439
				c-33.56,1.855-64.079,15.29-87.627,36.369L74.578,68.06C104.766,40.426,144.375,22.933,187.964,21.014z M63.251,79.388
				l25.761,25.761c-21.074,23.548-34.51,54.066-36.363,87.626H16.208C18.126,149.185,35.617,109.576,63.251,79.388z M16.208,208.794
				h36.442c1.856,33.557,15.291,64.073,36.368,87.619l-25.763,25.762C35.621,291.989,18.128,252.382,16.208,208.794z
				 M74.582,333.503l25.763-25.762c23.547,21.073,54.062,34.508,87.619,36.362v36.444
				C144.376,378.628,104.769,361.136,74.582,333.503z M155.469,392.535c13.074,2.759,26.622,4.22,40.505,4.22
				c1.575,0,3.144-0.023,4.711-0.06c2.632,3.546,5.414,6.95,8.331,10.211l-25.787,25.787
				C172.201,420.658,162.878,407.166,155.469,392.535z M308.016,490.992c-33.852-1.48-66.256-12.331-94.168-31.617
				c-6.81-4.707-13.233-9.855-19.274-15.371l25.786-25.785c24.094,21.52,54.957,34.489,87.655,36.319V490.992z M220.121,395.266
				c11.545-1.425,22.781-3.854,33.62-7.205c13.718,7.728,28.197,12.999,43.176,15.712v7.234c0,11.907,9.687,21.596,21.594,21.596
				c11.908,0,21.597-9.688,21.597-21.596v-6.913c34.358-6.181,55.378-28.179,55.378-58.654c0-22.374-8.934-38.456-27.948-50.029
				c14.353-25.918,22.998-55.41,24.241-86.777c32.24,23.89,51.781,62.02,51.781,102.584c0,70.321-57.211,127.532-127.533,127.532
				C279.109,438.75,244.208,422.715,220.121,395.266z M324.036,490.986v-36.444c33.556-1.854,64.072-15.287,87.618-36.361
				l25.763,25.763C407.231,471.577,367.623,489.068,324.036,490.986z M448.747,432.616l-25.763-25.762
				c21.076-23.547,34.511-54.064,36.368-87.622l36.442,0.002C493.872,362.823,476.38,402.43,448.747,432.616z"/>
			<path d="M194.193,136.781c0-2.326-1.011-4.537-2.771-6.059c-1.758-1.522-4.091-2.204-6.394-1.868
				c-15.58,2.273-24.881,11.387-24.881,24.382c0,8.835,2.768,18.874,23.3,26.336c0.889,0.324,1.813,0.482,2.735,0.482
				c1.623,0,3.232-0.493,4.598-1.449c2.139-1.498,3.413-3.947,3.413-6.561V136.781z M178.173,158.806
				c-2.007-2.009-2.007-3.805-2.007-5.57c0-1.065,0-3.125,2.007-5.01V158.806z"/>
			<path d="M157.131,231.435c-4.575-3.036-9.749-4.708-14.576-4.708c-14.601,0-26.038,11.324-26.038,25.78
				c0,9.432,4.503,17.417,12.724,22.509c14.78,9.02,31.112,15.287,47.625,18.309v7.243c0,11.907,9.687,21.596,21.593,21.596
				c11.908,0,21.597-9.688,21.597-21.596v-6.913c34.358-6.181,55.377-28.18,55.377-58.654c0-16.941-5.184-30.271-15.851-40.748
				c-9.146-8.983-22.215-15.868-40.835-21.461v-22.461c3.146,1.316,6.43,2.889,9.828,4.707c3.989,2.182,8.479,3.335,12.982,3.335
				c14.453,0,25.776-11.205,25.776-25.51c0-9.57-4.756-17.598-13.391-22.602c-0.036-0.021-0.074-0.042-0.111-0.063
				c-10.246-5.722-21.656-9.856-34-12.324c-1.517-10.433-10.522-18.471-21.371-18.471c-10.575,0-19.4,7.641-21.241,17.692
				c-33.775,5.871-55.212,28.275-55.212,58.493c0,38.399,26.282,52.848,56.168,61.7v24.862
				C171.425,239.729,164.647,236.262,157.131,231.435z M188.277,203.501c-37.102-10.049-50.253-22.586-50.253-47.91
				c0-23.794,18.267-40.463,47.674-43.501c4.083-0.422,7.186-3.862,7.186-7.967v-3.127c0-3.176,2.395-5.572,5.574-5.572
				c3.179,0,5.577,2.395,5.577,5.572v3.654c0,3.97,2.908,7.34,6.834,7.923c13.129,1.947,24.607,5.736,35.09,11.581
				c4.796,2.802,5.353,6.311,5.353,8.71c0,5.409-4.194,9.49-9.756,9.49c-1.851,0-3.633-0.461-5.36-1.404
				c-8.384-4.488-16.273-7.707-23.452-9.566c-2.4-0.619-4.952-0.098-6.912,1.42c-1.96,1.517-3.107,3.855-3.107,6.334v39.703
				c0,3.62,2.427,6.79,5.924,7.733c42.13,11.363,50.762,27.577,50.762,48.428c0,24.045-18.039,40.404-48.253,43.765
				c-4.056,0.452-7.125,3.88-7.125,7.961v13.842c0,3.127-2.45,5.576-5.577,5.576c-3.178,0-5.574-2.397-5.574-5.576v-14.104
				c0-4.034-3-7.438-7.002-7.947c-16.647-2.111-33.348-8.05-48.252-17.148c-3.477-2.154-5.095-4.969-5.095-8.863
				c0-5.655,4.213-9.76,10.019-9.76c1.67,0,3.817,0.768,5.746,2.055c0.038,0.025,0.076,0.05,0.114,0.075
				c12.806,8.229,23.929,13.076,36.066,15.716c2.371,0.517,4.841-0.07,6.729-1.589c1.887-1.521,2.984-3.814,2.984-6.237v-41.535
				C194.193,207.615,191.767,204.448,188.277,203.501z"/>
			<path d="M205.505,260.136c1.464,1.263,3.324,1.944,5.231,1.944c0.391,0,0.785-0.029,1.178-0.086
				c7.631-1.135,25.382-5.831,25.382-24.899c0-16.379-12.773-22.971-23.901-26.885c-2.451-0.865-5.169-0.483-7.287,1.02
				c-2.12,1.502-3.38,3.939-3.38,6.536v36.305C202.726,256.401,203.742,258.614,205.505,260.136z M218.746,230.842
				c2.529,2.332,2.529,4.422,2.529,6.253c0,1.424,0,3.77-2.529,5.797V230.842z"/>
		</g>
	</g>
</g>
<g>
</g>
<g>
</g>
<g>
</g>
<g>
</g>
<g>
</g>
<g>
</g>
<g>
</g>
<g>
</g>
<g>
</g>
<g>
</g>
<g>
</g>
<g>
</g>
<g>
</g>
<g>
</g>
<g>
</g>
</svg>
