<?xml version="1.0" standalone="no"?>
<!DOCTYPE svg PUBLIC "-//W3C//DTD SVG 20010904//EN"
 "http://www.w3.org/TR/2001/REC-SVG-20010904/DTD/svg10.dtd">
<svg version="1.0" xmlns="http://www.w3.org/2000/svg"
 width="433.000000pt" height="577.000000pt" viewBox="0 0 433.000000 577.000000"
 preserveAspectRatio="xMidYMid meet">

<g transform="translate(0.000000,577.000000) scale(0.100000,-0.100000)"
fill="#000000" stroke="none">
<path d="M1381 4363 c-17 -21 -34 -53 -37 -71 -8 -42 0 -164 15 -220 6 -23 16
-60 21 -81 6 -21 12 -61 15 -87 3 -27 8 -60 12 -74 10 -42 2 -91 -24 -147 -43
-95 -48 -156 -23 -274 12 -57 25 -117 27 -132 7 -35 33 -46 99 -41 52 3 45 0
-19 -11 -22 -3 -35 -10 -31 -16 3 -6 -2 -19 -12 -30 -16 -17 -16 -19 -1 -19
10 0 16 5 14 11 -1 6 4 14 12 17 8 2 11 0 7 -6 -3 -6 3 -13 14 -17 11 -4 18
-10 15 -14 -2 -5 3 -15 13 -24 16 -14 22 -13 72 18 30 19 60 35 65 35 6 0 4
-4 -4 -9 -10 -6 -10 -10 -1 -16 7 -4 19 0 28 8 13 13 13 21 4 42 -10 21 -9 25
4 25 10 0 14 6 10 15 -3 9 3 19 14 25 11 6 20 15 20 20 0 5 10 21 23 35 21 23
98 108 135 148 9 10 17 22 17 27 0 5 3 12 8 16 4 4 7 13 7 21 0 7 9 22 19 32
16 16 21 17 25 6 3 -8 2 -17 -3 -19 -4 -3 -6 -35 -5 -72 3 -57 7 -71 30 -95
15 -15 40 -31 55 -34 16 -4 29 -10 29 -13 0 -4 14 -13 30 -20 17 -8 37 -26 44
-40 24 -44 52 -61 118 -68 49 -6 57 -9 39 -15 -13 -5 -30 -5 -41 1 -25 13 -53
13 -45 0 4 -6 1 -17 -5 -25 -10 -12 -10 -15 2 -15 8 0 56 -20 106 -45 51 -24
92 -42 92 -40 0 3 25 -21 55 -51 55 -56 78 -99 29 -53 -23 20 -25 21 -17 4 12
-23 9 -58 -6 -63 -6 -2 -6 -12 1 -28 9 -18 9 -27 0 -36 -7 -7 -12 -20 -12 -29
0 -10 -9 -20 -20 -24 -11 -3 -19 -9 -19 -13 4 -23 -2 -42 -11 -37 -5 3 -10 -2
-10 -12 0 -14 -2 -15 -9 -4 -7 11 -10 9 -13 -10 -1 -13 -7 -24 -13 -24 -21 -1
-76 -43 -66 -49 14 -9 14 -46 1 -46 -5 0 -10 -9 -10 -19 0 -20 -25 -35 -41
-25 -5 3 -9 -4 -9 -14 0 -31 -29 -36 -40 -7 -5 14 -14 25 -20 25 -5 0 -13 0
-17 0 -3 0 -8 -12 -9 -26 -4 -36 -16 -46 -61 -50 -58 -5 -123 -28 -123 -44 0
-3 -17 -25 -38 -48 -30 -33 -38 -49 -34 -70 2 -18 -4 -42 -17 -63 -12 -19 -21
-28 -21 -21 0 6 -4 12 -9 12 -17 0 -20 -29 -5 -59 18 -35 9 -85 -13 -77 -8 3
-17 6 -19 6 -2 0 -4 13 -4 30 0 21 -4 28 -14 24 -11 -4 -13 0 -9 15 4 15 1 21
-12 21 -12 0 -16 6 -12 20 3 11 1 18 -4 14 -5 -3 -9 2 -9 12 0 14 -3 14 -15 4
-13 -11 -14 -10 -9 5 4 9 2 20 -6 25 -10 6 -10 12 0 31 l13 24 -26 -24 c-22
-20 -29 -22 -41 -12 -8 7 -20 10 -26 6 -5 -3 -10 0 -10 7 0 7 -11 25 -25 40
-19 21 -22 29 -12 35 23 14 28 42 9 54 -13 8 -17 22 -15 50 2 33 0 37 -15 32
-14 -5 -14 -3 2 9 22 17 16 48 -9 48 -8 0 -15 7 -15 15 0 8 -3 15 -7 15 -5 0
-8 -21 -8 -48 1 -26 -6 -64 -13 -85 -20 -53 -10 -129 33 -257 20 -58 42 -152
51 -210 8 -58 19 -130 24 -161 6 -31 13 -108 15 -170 3 -63 8 -152 13 -198 7
-75 10 -85 36 -106 38 -30 107 -49 151 -42 27 4 48 -1 91 -24 77 -40 153 -41
183 -3 12 15 21 31 21 36 0 5 11 34 25 63 13 30 27 66 31 80 8 31 65 49 121
37 77 -16 141 3 306 90 59 32 118 60 130 64 34 8 52 26 74 69 11 22 34 63 52
91 44 70 49 110 21 190 -27 81 -24 105 30 254 23 63 44 125 47 138 8 34 32 42
161 49 195 10 257 -16 313 -133 36 -77 86 -136 130 -154 34 -15 49 -4 49 35 0
37 -30 139 -58 195 -33 67 -121 163 -164 181 -18 7 -44 20 -58 29 -30 21 -115
37 -235 46 -99 7 -115 14 -115 52 0 13 -4 41 -10 61 -5 20 -21 83 -35 141 -15
58 -31 109 -36 115 -5 5 -9 16 -9 25 0 51 -173 390 -200 390 -5 0 -15 6 -22
13 -8 6 -27 19 -42 27 -28 15 -31 20 -78 157 -8 23 -8 43 1 75 7 24 17 60 22
82 5 21 21 53 35 71 17 22 29 55 35 97 5 35 13 81 19 103 19 78 2 176 -31 187
-16 5 -114 -45 -161 -83 -20 -16 -39 -29 -42 -29 -3 0 -40 -23 -83 -51 l-78
-51 -85 6 c-47 3 -100 11 -118 17 -19 6 -48 8 -70 4 -61 -12 -177 -7 -238 11
-48 14 -69 28 -122 82 -35 36 -72 82 -82 102 -10 20 -25 42 -33 49 -8 6 -20
25 -27 41 -10 25 -18 30 -45 30 -26 0 -40 -8 -64 -37z m319 -763 c0 -5 -2 -10
-4 -10 -3 0 -8 5 -11 10 -3 6 -1 10 4 10 6 0 11 -4 11 -10z m-40 -24 c0 -22
40 -66 60 -66 11 0 27 11 36 25 9 14 20 25 25 25 16 0 10 -23 -13 -47 -31 -33
-90 -32 -117 3 -21 27 -27 55 -14 67 11 11 23 8 23 -7z m615 -86 c-3 -5 -16
-15 -28 -21 -22 -12 -22 -12 -3 10 19 21 43 30 31 11z m-637 -247 c-10 -2 -26
-2 -35 0 -10 3 -2 5 17 5 19 0 27 -2 18 -5z m225 -1123 c-3 -11 -7 -20 -9 -20
-2 0 -4 9 -4 20 0 11 4 20 9 20 5 0 7 -9 4 -20z m107 -244 c14 -18 -5 -149
-30 -202 -23 -46 -78 -93 -84 -72 -14 45 -14 74 0 135 8 37 19 87 24 111 5 24
12 47 15 52 7 11 60 -7 75 -24z"/>
<path d="M2010 3250 c0 -5 -9 -10 -21 -10 -12 0 -23 -8 -26 -18 -3 -14 -11
-18 -30 -14 -17 3 -24 0 -23 -9 8 -57 -5 -76 -60 -84 -67 -9 -80 -15 -79 -33
0 -12 2 -13 6 -4 4 10 9 8 19 -7 13 -18 16 -18 44 -5 17 9 49 14 77 12 40 -2
48 -6 48 -22 0 -13 8 -20 25 -22 14 -1 35 -5 47 -9 16 -5 25 -3 29 9 9 23 -14
46 -46 46 -33 0 -90 44 -90 69 0 9 23 34 50 54 47 35 62 57 40 57 -5 0 -10 -4
-10 -10z"/>
<path d="M1656 3152 c-3 -5 4 -18 15 -28 17 -16 22 -16 29 -4 6 10 5 16 -3 19
-7 2 -17 8 -24 13 -7 5 -13 5 -17 0z"/>
<path d="M2195 3140 c3 -5 -5 -12 -19 -16 -30 -7 -25 -24 17 -54 l32 -23 -25
28 c-21 23 -22 26 -5 17 11 -5 31 -22 44 -36 25 -27 55 -34 66 -16 3 6 14 10
24 10 10 0 18 7 18 16 0 10 -27 28 -75 50 -81 37 -86 39 -77 24z"/>
<path d="M1496 2657 c3 -10 9 -15 12 -12 3 3 0 11 -7 18 -10 9 -11 8 -5 -6z"/>
<path d="M1831 2334 c0 -11 3 -14 6 -6 3 7 2 16 -1 19 -3 4 -6 -2 -5 -13z"/>
</g>
</svg>
