<?xml version="1.0" standalone="no"?>
<!DOCTYPE svg PUBLIC "-//W3C//DTD SVG 20010904//EN"
 "http://www.w3.org/TR/2001/REC-SVG-20010904/DTD/svg10.dtd">
<svg version="1.0" xmlns="http://www.w3.org/2000/svg"
 width="433.000000pt" height="577.000000pt" viewBox="0 0 433.000000 577.000000"
 preserveAspectRatio="xMidYMid meet">

<g transform="translate(0.000000,577.000000) scale(0.100000,-0.100000)"
fill="#000000" stroke="none">
<path d="M2167 4463 c-17 -6 -41 -12 -53 -12 -12 -1 -40 -15 -63 -31 -74 -54
-136 -73 -216 -66 -40 4 -100 1 -141 -6 -80 -13 -113 -7 -214 39 -117 53 -116
53 -87 -52 29 -106 32 -196 9 -240 -17 -34 -17 -44 -6 -120 6 -45 19 -96 28
-113 9 -17 16 -37 16 -44 0 -24 69 -14 88 13 9 13 26 33 37 45 12 12 31 34 42
49 l20 29 -2 -41 c-3 -47 9 -66 52 -80 17 -6 49 -29 72 -51 32 -31 38 -41 28
-52 -14 -14 -7 -12 46 15 34 17 40 17 70 4 33 -16 67 -15 67 2 0 5 5 9 12 9 6
0 19 7 28 15 26 24 47 9 46 -30 -1 -25 -6 -35 -17 -35 -10 0 -15 -8 -15 -22 1
-17 -4 -22 -16 -20 -10 2 -18 -3 -18 -11 0 -8 -7 -18 -16 -21 -10 -4 -14 -14
-11 -26 3 -11 1 -20 -4 -20 -5 0 -9 -5 -9 -10 0 -17 -53 -66 -87 -81 -26 -11
-38 -27 -57 -74 -14 -33 -25 -51 -26 -40 -1 19 -1 19 -11 1 -8 -13 -8 -25 0
-43 11 -24 10 -25 -11 -19 -13 3 -26 6 -30 6 -5 0 -8 9 -8 20 0 11 -7 20 -15
20 -8 0 -15 5 -15 10 0 6 -6 10 -14 10 -8 0 -32 16 -53 35 -21 19 -34 35 -30
35 4 0 3 9 -3 21 -8 14 -8 24 -1 33 8 9 0 34 -29 92 -22 43 -40 84 -40 91 0
16 -12 17 -29 1 -11 -11 -12 -10 -5 2 14 25 12 51 -3 45 -8 -3 -16 -5 -17 -5
-5 0 4 -98 13 -145 5 -27 16 -86 24 -130 9 -44 20 -120 26 -170 6 -49 20 -162
32 -250 11 -88 23 -213 26 -277 l6 -118 46 -16 c68 -24 76 -29 73 -53 -3 -20
1 -21 68 -21 39 0 80 -5 92 -11 11 -6 22 -9 24 -6 8 8 46 110 56 152 25 101
40 149 85 275 56 153 72 187 102 214 18 16 26 17 65 7 25 -6 59 -11 75 -11 28
0 31 3 31 30 0 36 36 73 65 66 13 -4 29 5 50 28 22 24 42 35 75 40 25 4 55 14
68 22 21 14 27 13 77 -12 l55 -26 32 19 c39 22 58 55 58 100 0 39 3 41 87 57
38 8 109 25 158 39 113 32 409 91 535 107 52 7 110 18 129 26 30 13 60 39 61
55 1 15 -84 49 -162 64 -92 18 -122 17 -228 -10 -36 -9 -130 -20 -210 -25
-136 -8 -151 -11 -240 -48 -68 -29 -99 -37 -107 -30 -9 7 -13 39 -13 92 0 115
-39 224 -109 303 -28 32 -63 77 -78 99 -16 23 -50 74 -78 114 -27 40 -55 81
-61 92 -13 21 -32 34 -104 69 -51 25 -142 31 -193 12z m-647 -488 c0 -17 17
-20 22 -4 2 7 9 5 17 -5 12 -14 10 -16 -11 -16 -24 0 -48 16 -48 32 0 4 5 8
10 8 6 0 10 -7 10 -15z m310 -34 c0 -5 -7 -11 -15 -15 -9 -3 -15 0 -15 9 0 8
7 15 15 15 8 0 15 -4 15 -9z"/>
<path d="M1440 3780 c0 -5 7 -7 15 -4 8 4 15 8 15 10 0 2 -7 4 -15 4 -8 0 -15
-4 -15 -10z"/>
<path d="M1445 3760 c-3 -5 1 -10 9 -10 8 0 18 5 21 10 3 6 -1 10 -9 10 -8 0
-18 -4 -21 -10z"/>
</g>
</svg>
