<?xml version="1.0" standalone="no"?>
<!DOCTYPE svg PUBLIC "-//W3C//DTD SVG 20010904//EN"
 "http://www.w3.org/TR/2001/REC-SVG-20010904/DTD/svg10.dtd">
<svg version="1.0" xmlns="http://www.w3.org/2000/svg"
 width="433.000000pt" height="577.000000pt" viewBox="0 0 433.000000 577.000000"
 preserveAspectRatio="xMidYMid meet">

<g transform="translate(0.000000,577.000000) scale(0.100000,-0.100000)"
fill="#000000" stroke="none">
<path d="M1576 3735 c-21 -14 -74 -58 -118 -96 -76 -67 -138 -111 -223 -159
-71 -40 -281 -43 -354 -5 -30 15 -78 8 -107 -16 -18 -15 -120 -15 -214 1 -167
27 -295 68 -427 136 l-128 66 -3 -150 -3 -151 27 -26 c24 -24 25 -27 10 -44
-9 -10 -14 -20 -12 -22 2 -2 6 -29 9 -60 2 -30 12 -70 22 -89 14 -27 16 -48
11 -100 -3 -37 -10 -80 -15 -96 -25 -83 -33 -147 -35 -286 -2 -84 -7 -192 -11
-240 -6 -69 -5 -88 5 -88 10 0 10 -3 1 -14 -8 -9 -11 -41 -10 -84 l3 -70 32
26 c17 15 29 30 27 34 -2 4 3 5 11 2 20 -8 20 -13 -2 -37 -16 -19 -16 -20 5
-8 30 16 40 14 64 -10 l22 -22 51 22 c94 39 190 62 281 68 87 6 121 16 109 34
-3 5 2 9 11 9 17 0 17 30 0 42 -5 4 0 8 11 8 28 0 41 16 49 64 5 24 14 40 25
43 10 3 21 12 25 21 14 39 31 63 47 68 10 3 19 10 19 15 1 5 3 14 4 19 1 6 3
15 4 21 0 5 5 8 10 4 13 -7 34 32 27 50 -2 7 6 28 20 46 13 18 24 38 24 45 0
7 5 16 11 19 7 5 8 -4 4 -28 -5 -23 -2 -45 9 -65 9 -17 16 -50 16 -72 0 -48
14 -65 67 -85 21 -7 32 -14 24 -14 -11 -1 -11 -4 -1 -16 9 -11 16 -12 25 -5
13 11 75 -6 87 -24 4 -6 10 -7 14 -4 12 13 64 -31 57 -49 -5 -12 -2 -15 10
-10 9 3 19 2 22 -3 3 -4 -1 -11 -7 -13 -7 -3 -1 -6 15 -6 24 -1 32 -10 28 -33
0 -5 12 -8 29 -8 22 0 28 -4 24 -15 -4 -9 0 -15 7 -15 11 0 11 -2 -1 -10 -20
-13 -16 -15 83 -34 75 -14 90 -14 102 -2 12 12 7 14 -38 20 -79 10 -118 18
-114 23 3 2 43 -1 91 -8 68 -10 88 -9 101 1 36 30 17 38 -107 46 -92 6 -112 9
-81 14 23 3 68 3 100 -1 32 -4 90 -8 128 -8 44 -1 65 -5 56 -10 -11 -7 -10
-11 5 -20 17 -11 16 -11 -6 -5 l-25 6 22 -22 c16 -17 34 -23 77 -25 37 -2 66
-10 88 -24 28 -19 29 -21 8 -15 -14 4 -26 10 -28 15 -2 4 -10 5 -19 2 -9 -4
-14 -2 -11 3 4 5 -22 10 -58 11 -35 1 -64 0 -64 -2 0 -3 18 -14 40 -25 22 -11
40 -23 40 -25 0 -3 -13 1 -28 9 -27 14 -72 12 -72 -3 0 -4 12 -12 28 -19 l27
-11 -32 5 c-17 3 -34 0 -38 -5 -3 -6 -1 -11 6 -11 9 0 9 -3 0 -14 -10 -11 -8
-16 6 -20 10 -4 29 -15 43 -26 l25 -20 -28 10 c-66 24 -69 11 -10 -39 32 -26
67 -59 78 -72 11 -13 -1 -5 -26 18 -49 43 -109 79 -109 65 0 -4 6 -14 13 -21
10 -10 9 -11 -6 -5 -13 5 -16 2 -10 -11 5 -15 2 -17 -19 -13 -28 5 -32 -9 -10
-35 11 -13 9 -16 -8 -22 -17 -5 -21 -13 -17 -31 2 -13 1 -21 -4 -19 -4 3 -9 0
-11 -6 -3 -8 -10 -6 -21 5 -9 10 -17 12 -17 6 0 -6 -4 -9 -9 -5 -5 3 -12 1
-16 -5 -4 -6 -10 -8 -14 -6 -4 3 -5 -9 -3 -26 3 -21 1 -29 -7 -24 -7 5 -11 -1
-11 -14 0 -12 -4 -18 -10 -15 -5 3 -10 1 -10 -4 0 -6 -7 -11 -15 -11 -9 0 -20
-12 -26 -27 -7 -18 -13 -23 -18 -15 -5 8 -11 6 -23 -7 -36 -43 -39 -58 -18
-93 11 -18 25 -44 32 -58 7 -14 25 -38 41 -54 21 -21 25 -31 16 -37 -7 -4 -17
-5 -21 -3 -4 3 -8 -2 -8 -10 0 -20 -9 -20 -31 -1 -18 17 -69 11 -69 -8 0 -5
-8 -3 -17 6 -12 10 -28 13 -46 10 -24 -5 -29 -1 -43 32 -11 26 -19 35 -31 31
-41 -16 -163 57 -163 98 0 8 -9 20 -20 26 -27 14 -25 0 6 -46 15 -21 19 -32
10 -25 -9 7 -16 9 -16 4 0 -11 -50 -10 -68 1 -6 4 -22 9 -34 11 -13 3 -24 9
-26 15 -6 17 -42 -9 -42 -31 0 -17 -3 -18 -20 -9 -11 6 -25 8 -30 5 -6 -3 -10
-2 -10 4 0 5 -10 8 -23 7 -64 -7 -102 75 -107 229 l-2 40 -39 -80 c-21 -44
-41 -102 -45 -128 -5 -35 -10 -47 -20 -43 -8 3 -14 -1 -14 -9 0 -8 -7 -15 -15
-15 -9 0 -15 9 -15 23 l-1 22 -19 -24 c-16 -18 -20 -20 -20 -7 0 9 -7 19 -15
22 -8 4 -15 13 -15 21 0 8 -5 11 -10 8 -6 -3 -14 4 -19 17 -8 23 -9 22 -31
-12 -16 -25 -21 -29 -17 -12 3 12 1 22 -4 22 -5 0 -9 -5 -9 -11 0 -5 -4 -8 -9
-5 -15 10 -6 59 22 118 15 31 27 60 27 64 0 4 7 16 17 26 25 28 8 34 -20 7
-43 -43 -147 -119 -147 -109 0 6 -8 10 -17 8 -15 -2 -17 4 -15 32 2 35 2 35
-14 13 -24 -34 -37 -28 -18 8 16 31 16 32 -5 26 -18 -4 -21 -2 -16 14 6 17 3
19 -19 15 -29 -5 -30 -3 -16 25 9 15 7 21 -5 25 -21 8 -19 27 5 49 11 10 17
21 15 26 -3 4 -1 10 5 14 6 4 8 11 5 16 -8 12 -55 -20 -55 -38 0 -13 3 -13 15
-3 9 7 18 10 21 7 3 -3 -3 -12 -15 -19 -21 -13 -21 -18 -21 -401 l0 -388 65
-67 c37 -37 72 -73 79 -81 14 -14 152 -71 171 -71 6 0 46 -14 90 -31 133 -51
193 -59 443 -59 225 0 305 7 392 33 38 12 42 16 25 22 -11 5 -23 13 -27 19 -5
7 -8 4 -8 -6 0 -19 -8 -21 -50 -19 -46 3 -50 4 -50 23 0 11 5 16 10 13 6 -3
10 1 10 9 0 8 6 21 13 28 8 7 20 25 27 38 7 14 25 41 40 60 75 96 67 239 -12
228 -19 -3 -28 0 -28 9 0 15 -6 14 90 20 81 4 162 -9 225 -37 22 -10 52 -20
66 -24 41 -9 76 -43 94 -89 16 -42 18 -43 83 -57 37 -8 118 -15 182 -15 154 0
214 18 282 86 46 46 57 52 124 65 41 7 94 22 117 33 23 10 68 28 100 40 113
41 189 94 247 170 19 25 48 60 64 76 15 17 36 46 47 66 15 31 16 41 6 63 -7
14 -15 26 -19 26 -3 0 -14 24 -24 53 -27 82 -50 118 -93 143 l-39 24 -21 -43
c-12 -24 -21 -50 -21 -58 0 -8 -15 -22 -32 -32 -40 -22 -98 -73 -98 -87 0 -5
-11 -17 -25 -26 -14 -9 -22 -20 -19 -26 13 -21 -109 -104 -178 -122 -24 -5
-28 -3 -28 14 0 11 -7 20 -15 20 -10 0 -15 10 -15 34 0 18 -8 44 -19 57 -29
37 -34 65 -16 83 9 9 13 20 10 26 -3 5 0 10 7 10 8 0 9 3 3 8 -21 15 -13 29
26 46 21 10 39 23 40 29 0 7 3 23 5 37 3 14 -3 44 -12 68 -18 48 -12 101 9 83
10 -8 18 -3 31 19 9 17 21 30 26 30 14 0 19 -15 10 -30 -5 -9 -5 -20 2 -28 9
-10 18 -6 45 20 33 32 34 32 39 10 4 -12 10 -19 16 -16 5 3 15 1 22 -5 17 -14
36 7 64 69 20 44 20 46 2 75 -17 28 -134 123 -154 124 -18 2 -134 57 -201 96
-84 49 -218 115 -234 115 -6 0 -11 3 -11 8 0 11 -137 50 -205 58 -33 3 -64 10
-70 14 -5 5 -9 44 -9 87 1 43 -2 83 -7 89 -6 7 -9 16 -7 20 4 18 -13 84 -22
84 -6 0 -10 6 -10 13 0 7 -12 33 -27 58 -18 27 -27 55 -26 74 10 124 24 221
42 283 11 40 25 119 32 175 10 93 10 107 -8 157 -23 67 -48 75 -107 35z
m-1023 -675 c3 -11 2 -18 -3 -15 -4 3 -10 14 -13 25 -3 11 -2 18 3 15 4 -3 10
-14 13 -25z m850 -777 c-7 -2 -19 -2 -25 0 -7 3 -2 5 12 5 14 0 19 -2 13 -5z
m1017 -113 c0 -5 -7 -7 -15 -4 -8 4 -12 10 -9 15 6 11 24 2 24 -11z m-555 0
c3 -6 -1 -7 -9 -4 -18 7 -21 14 -7 14 6 0 13 -4 16 -10z m-65 -66 c0 -3 -13 4
-30 16 -16 12 -30 24 -30 26 0 3 14 -4 30 -16 17 -12 30 -24 30 -26z m60 -49
c19 -19 32 -35 29 -35 -3 0 -20 16 -39 35 -19 19 -32 35 -29 35 3 0 20 -16 39
-35z"/>
<path d="M1005 2237 c-11 -8 -14 -16 -8 -20 6 -4 18 2 28 13 21 23 8 27 -20 7z"/>
<path d="M1323 2205 c0 -8 8 -15 18 -15 24 0 33 16 13 24 -24 9 -31 7 -31 -9z"/>
<path d="M505 2196 c-31 -9 -36 -13 -22 -19 9 -3 17 -14 17 -22 0 -12 6 -15
23 -10 21 6 21 5 -2 -8 -24 -14 -24 -15 -3 -26 31 -16 50 -14 62 9 13 23 6 40
-16 40 -22 0 -12 23 17 37 l24 13 -30 -1 c-16 0 -48 -6 -70 -13z m35 -26 c0
-5 -5 -10 -11 -10 -5 0 -7 5 -4 10 3 6 8 10 11 10 2 0 4 -4 4 -10z"/>
<path d="M340 2181 c-79 -22 -135 -45 -144 -60 -11 -17 9 -13 77 15 34 14 87
34 117 45 70 23 35 23 -50 0z"/>
<path d="M1414 2185 c22 -17 42 -19 50 -6 7 11 -17 21 -47 21 -22 -1 -22 -1
-3 -15z"/>
<path d="M1290 2170 c0 -5 9 -10 20 -10 11 0 20 5 20 10 0 6 -9 10 -20 10 -11
0 -20 -4 -20 -10z"/>
<path d="M311 2140 c-91 -36 -96 -41 -35 -35 65 5 171 45 123 45 -11 0 -11 2
1 10 30 20 -13 10 -89 -20z m59 0 c-8 -5 -19 -10 -25 -10 -5 0 -3 5 5 10 8 5
20 10 25 10 6 0 3 -5 -5 -10z"/>
<path d="M939 2158 c-8 -35 -3 -78 9 -83 8 -3 16 -4 18 -3 6 7 -9 88 -17 88
-5 0 -9 -1 -10 -2z"/>
<path d="M575 2090 c-10 -16 3 -29 25 -23 24 6 26 19 4 27 -21 8 -22 8 -29 -4z"/>
<path d="M10 2075 c-7 -9 -10 -18 -6 -22 3 -3 6 -1 6 6 0 7 4 10 8 7 5 -3 9 1
9 9 0 19 -2 19 -17 0z"/>
<path d="M787 2054 c-9 -10 2 -24 19 -24 8 0 14 7 14 15 0 15 -21 21 -33 9z"/>
<path d="M920 2024 c0 -8 5 -12 10 -9 6 3 10 10 10 16 0 5 -4 9 -10 9 -5 0
-10 -7 -10 -16z"/>
<path d="M1358 953 c7 -3 16 -2 19 1 4 3 -2 6 -13 5 -11 0 -14 -3 -6 -6z"/>
<path d="M1290 938 c0 -10 9 -9 35 2 17 8 16 8 -7 7 -16 -1 -28 -5 -28 -9z"/>
</g>
</svg>
