<?xml version="1.0" standalone="no"?>
<!DOCTYPE svg PUBLIC "-//W3C//DTD SVG 20010904//EN"
 "http://www.w3.org/TR/2001/REC-SVG-20010904/DTD/svg10.dtd">
<svg version="1.0" xmlns="http://www.w3.org/2000/svg"
 width="433.000000pt" height="577.000000pt" viewBox="0 0 433.000000 577.000000"
 preserveAspectRatio="xMidYMid meet">

<g transform="translate(0.000000,577.000000) scale(0.100000,-0.100000)"
fill="#000000" stroke="none">
<path d="M1192 5757 c-21 -24 -35 -119 -28 -188 3 -36 15 -109 25 -161 11 -52
25 -134 31 -183 13 -100 24 -145 48 -192 14 -28 15 -43 4 -116 -17 -118 -15
-172 8 -216 22 -44 40 -143 32 -175 -3 -11 -13 -27 -23 -34 -10 -7 -39 -39
-64 -72 -38 -50 -46 -67 -47 -105 0 -25 -4 -47 -7 -50 -15 -8 0 -187 20 -245
11 -31 22 -70 24 -86 8 -50 27 -117 46 -161 11 -24 19 -46 19 -49 0 -13 95
-149 112 -162 10 -7 18 -21 18 -31 0 -10 6 -23 13 -29 13 -11 15 -93 5 -182
-3 -19 0 -50 5 -67 13 -40 86 -103 147 -126 72 -27 107 -63 141 -147 46 -114
81 -154 159 -179 86 -28 160 -27 235 4 33 14 68 25 77 25 34 0 44 10 41 43 -2
28 -2 29 5 7 4 -14 16 -26 25 -28 15 -3 17 2 12 25 l-5 28 10 -26 c8 -21 16
-25 35 -21 14 2 22 8 19 13 -3 5 2 6 10 3 27 -11 32 27 6 48 -18 15 -25 16
-37 6 -13 -10 -20 -7 -40 17 -15 17 -23 22 -19 12 9 -28 -23 -34 -43 -8 -10
13 -29 22 -48 24 -23 1 -34 8 -37 24 -5 17 -39 38 -74 43 -4 1 -21 10 -38 21
-17 10 -33 16 -36 14 -3 -3 -10 0 -16 8 -17 19 -3 54 23 61 12 3 25 16 29 28
3 13 26 37 50 53 25 17 48 36 50 43 6 14 -20 17 -28 3 -3 -5 -20 -14 -36 -20
-18 -6 -28 -6 -25 -1 7 12 -83 110 -100 110 -8 0 -11 8 -8 20 6 21 -5 24 -54
20 -25 -2 -53 20 -54 42 0 7 -4 4 -9 -7 -9 -20 -10 -19 -14 23 -3 29 -26 54
-26 29 0 -9 -8 -17 -17 -17 -9 0 -14 -3 -10 -6 3 -3 -3 -25 -13 -49 -21 -48
-22 -112 -2 -120 6 -2 12 -14 12 -25 0 -12 5 -18 10 -15 6 3 11 -1 11 -9 1 -9
3 -20 4 -26 1 -5 3 -13 4 -18 0 -4 12 -20 26 -35 18 -19 22 -27 11 -27 -8 0
-18 5 -21 10 -5 7 -11 8 -19 1 -6 -5 -34 -13 -61 -16 -39 -5 -60 -2 -95 14
-25 11 -48 20 -52 20 -10 1 -48 39 -48 48 0 3 7 15 17 25 15 17 14 19 -11 41
l-27 24 30 32 c17 18 31 38 31 45 1 6 18 25 40 41 21 17 53 52 70 80 30 47 33
48 46 30 11 -15 17 -16 26 -7 7 7 20 12 29 12 10 0 20 4 23 9 4 5 -5 8 -19 6
-30 -3 -34 15 -5 22 25 7 25 12 3 29 -17 12 -17 12 2 11 13 -1 20 4 19 16 -1
9 3 17 8 17 6 0 8 -12 5 -27 l-5 -27 18 24 c11 15 23 21 34 17 10 -4 15 -3 11
3 -3 6 -16 10 -28 10 l-22 1 22 12 c12 7 23 17 24 22 3 19 45 61 56 58 6 -2
13 6 16 19 4 13 13 32 20 42 13 18 16 18 30 4 12 -12 13 -18 4 -27 -9 -9 -9
-14 2 -20 9 -6 10 -14 3 -27 -5 -11 -8 -29 -7 -42 1 -15 -3 -21 -12 -18 -7 3
-13 1 -13 -4 0 -6 5 -10 11 -10 7 0 9 -9 6 -21 -3 -12 0 -31 8 -43 14 -20 15
-25 15 -46 0 -5 6 -10 14 -10 9 0 17 -15 21 -40 6 -38 18 -50 29 -32 3 5 19 9
36 10 21 0 30 -4 30 -15 0 -9 6 -13 15 -9 8 3 15 0 15 -7 0 -11 69 -66 120
-97 8 -5 14 -21 15 -36 0 -20 9 -34 31 -49 17 -11 29 -26 26 -33 -2 -7 5 -12
17 -12 23 0 36 -16 21 -25 -19 -12 -10 -33 16 -39 15 -4 33 -14 41 -21 13 -13
13 -17 -1 -30 -8 -8 -22 -15 -30 -15 -20 0 -21 -14 -2 -29 20 -17 25 -45 10
-59 -8 -7 -16 -13 -19 -13 -43 -6 -45 -9 -23 -52 12 -23 22 -43 23 -44 5 -9
65 25 65 37 0 12 2 12 9 2 6 -11 26 -12 85 -7 93 9 173 -6 239 -44 179 -102
236 -138 267 -165 44 -40 120 -89 230 -150 47 -26 127 -71 179 -100 53 -30
102 -51 112 -49 10 3 63 0 119 -6 74 -8 124 -20 183 -45 109 -45 238 -63 299
-41 59 20 79 19 118 -10 19 -14 35 -25 37 -25 2 0 3 520 3 1156 l0 1156 -24
-6 c-18 -4 -25 -1 -29 13 -4 15 -14 18 -67 18 -34 0 -65 4 -68 9 -4 5 -28 9
-54 10 -30 0 -55 7 -66 17 -10 10 -32 17 -49 17 -16 0 -49 7 -74 15 -24 8 -56
16 -70 18 -15 1 -45 22 -70 47 -24 25 -47 44 -51 42 -13 -4 -9 11 18 84 24 62
27 83 27 209 1 176 -15 235 -81 302 -81 80 -138 86 -243 23 -83 -49 -157 -110
-288 -235 -91 -88 -100 -94 -156 -104 -72 -14 -147 -5 -176 20 -12 11 -31 19
-41 19 -10 0 -27 8 -38 18 -26 24 -103 45 -142 39 -18 -3 -52 -12 -76 -21 -63
-24 -323 -36 -346 -17 -6 5 -38 17 -71 26 -76 23 -215 87 -263 122 -51 38
-181 153 -353 314 -80 75 -159 144 -177 153 -38 19 -95 21 -110 3z m389 -1174
c13 -16 12 -17 -3 -4 -10 7 -18 15 -18 17 0 8 8 3 21 -13z m986 -225 c-3 -8
-6 -5 -6 6 -1 11 2 17 5 13 3 -3 4 -12 1 -19z m233 -472 c-13 -13 -35 7 -25
24 5 8 11 8 21 -1 10 -8 12 -15 4 -23z m-223 -126 c16 -15 35 -29 43 -33 13
-5 13 -6 -1 -6 -47 -3 -94 45 -103 105 l-6 39 19 -39 c10 -22 32 -51 48 -66z
m-619 -569 c-8 -14 -14 -16 -23 -7 -10 8 -9 13 4 22 22 17 33 7 19 -15z m658
-223 l29 -33 -32 29 c-31 28 -38 36 -30 36 2 0 16 -15 33 -32z"/>
<path d="M1700 3496 c0 -2 7 -7 16 -10 8 -3 12 -2 9 4 -6 10 -25 14 -25 6z"/>
<path d="M1537 3253 c-10 -10 -8 -23 4 -23 5 0 8 4 5 9 -4 5 0 12 6 14 7 3 8
6 2 6 -6 1 -14 -2 -17 -6z"/>
<path d="M1564 3239 c-5 -9 -16 -19 -24 -22 -13 -5 -13 -5 0 -6 23 -1 43 15
38 30 -4 11 -7 10 -14 -2z"/>
<path d="M1990 3096 c0 -3 9 -10 20 -16 11 -6 20 -8 20 -6 0 3 -9 10 -20 16
-11 6 -20 8 -20 6z"/>
<path d="M2166 2994 c-5 -12 -2 -15 10 -10 8 3 20 6 25 6 6 0 7 5 4 10 -10 15
-32 12 -39 -6z"/>
<path d="M2283 2983 c9 -9 19 -14 23 -11 10 10 -6 28 -24 28 -15 0 -15 -1 1
-17z"/>
</g>
</svg>
