<?xml version="1.0" standalone="no"?>
<!DOCTYPE svg PUBLIC "-//W3C//DTD SVG 20010904//EN"
 "http://www.w3.org/TR/2001/REC-SVG-20010904/DTD/svg10.dtd">
<svg version="1.0" xmlns="http://www.w3.org/2000/svg"
 width="433.000000pt" height="577.000000pt" viewBox="0 0 433.000000 577.000000"
 preserveAspectRatio="xMidYMid meet">

<g transform="translate(0.000000,577.000000) scale(0.100000,-0.100000)"
fill="#000000" stroke="none">
<path d="M1315 4079 c-21 -40 -21 -145 1 -229 17 -69 30 -144 40 -225 5 -41 2
-58 -15 -89 -17 -29 -22 -56 -23 -119 -1 -95 22 -239 46 -282 9 -16 16 -41 16
-55 0 -20 7 -29 33 -38 18 -7 48 -12 65 -12 28 0 38 -9 30 -25 -2 -2 6 -11 17
-20 11 -9 14 -14 8 -10 -27 13 -11 -4 21 -24 37 -23 60 -29 31 -7 -33 24 -25
53 29 109 28 29 56 51 62 49 7 -1 17 11 22 27 18 50 72 93 72 56 0 -8 5 -15
10 -15 6 0 9 -15 8 -32 -2 -22 1 -32 10 -31 23 5 12 -18 -15 -28 -31 -11 -52
-37 -53 -61 0 -10 -4 -18 -10 -18 -5 0 -14 8 -19 18 -17 28 -13 4 5 -29 20
-39 13 -55 -25 -64 -39 -8 -39 -20 -1 -37 23 -10 30 -18 26 -33 -12 -51 53
-94 144 -95 54 -1 78 -27 81 -89 2 -30 -2 -56 -9 -63 -7 -7 -12 -24 -12 -39 0
-30 -37 -82 -52 -73 -5 3 -17 -4 -25 -16 -9 -13 -18 -18 -22 -11 -4 6 -19 -2
-39 -20 -18 -17 -30 -35 -26 -40 3 -5 10 -7 15 -4 5 4 9 -3 9 -14 0 -12 -5
-21 -11 -21 -5 0 -8 4 -4 9 3 6 -4 15 -15 21 -11 6 -18 16 -14 22 5 7 -1 9
-19 5 -22 -6 -24 -4 -19 16 3 12 10 26 16 30 7 6 4 7 -6 3 -12 -3 -18 0 -18 9
0 8 -8 19 -17 24 -15 8 -15 11 -3 12 8 0 4 4 -10 8 l-25 7 30 18 c27 15 20 16
-17 1 -7 -3 -19 -1 -27 4 -12 8 -12 12 -2 25 11 14 11 16 -3 16 -10 0 -14 5
-11 11 4 6 1 10 -6 8 -27 -3 -40 1 -33 12 4 7 -1 7 -16 -1 -21 -11 -22 -11
-16 15 5 19 3 25 -5 20 -11 -7 -9 5 9 55 4 11 -1 10 -16 -4 -24 -21 -28 -16
-12 15 12 22 -8 27 -28 7 -9 -9 -12 -8 -12 6 0 9 -4 14 -10 11 -10 -6 -15 9
-10 30 1 5 -2 6 -7 2 -9 -10 -11 -30 -3 -37 12 -10 40 -79 40 -99 0 -12 6 -21
13 -21 8 0 8 -3 2 -8 -6 -4 -23 -28 -38 -54 -15 -27 -31 -48 -35 -48 -17 0
-44 -71 -45 -118 -3 -91 71 -157 185 -164 111 -6 121 -32 69 -168 -43 -111
-48 -163 -22 -221 11 -25 36 -59 55 -77 20 -18 34 -38 32 -44 -1 -7 -1 -10 1
-5 9 14 23 7 23 -12 0 -11 -9 -26 -21 -35 -25 -17 -19 -52 11 -61 43 -14 156
61 190 127 12 22 19 53 18 80 -2 30 4 52 19 73 12 17 24 47 27 67 6 35 24 55
97 111 92 70 144 97 186 97 15 0 37 7 47 15 11 8 37 15 57 15 21 0 50 5 66 11
15 6 102 13 193 15 l165 4 90 45 c50 25 138 58 197 74 77 20 120 38 155 63 26
20 53 37 59 39 27 9 84 93 99 146 9 32 26 76 38 98 36 71 54 521 22 582 -8 15
-15 34 -15 42 0 45 -155 218 -220 245 -20 8 -44 24 -55 36 -27 30 -103 80
-121 80 -7 0 -14 4 -14 9 0 9 -48 23 -138 41 -67 13 -215 13 -228 0 -5 -5 -27
-12 -48 -14 -21 -3 -49 -12 -62 -21 -34 -22 -47 -20 -34 5 6 11 20 48 31 82
32 101 22 167 -27 170 -11 1 -57 -19 -101 -45 -135 -80 -184 -95 -278 -87 -62
5 -88 12 -117 32 -37 26 -40 26 -176 21 -168 -7 -180 -2 -284 101 -89 87 -156
136 -185 136 -15 0 -28 -10 -38 -31z m485 -881 c0 -19 -16 -5 -17 14 -2 18 0
20 7 8 5 -8 10 -18 10 -22z m144 -184 c10 -25 -1 -29 -14 -5 -6 12 -7 21 -1
21 5 0 12 -7 15 -16z m-14 -34 c0 -5 -4 -10 -10 -10 -5 0 -10 5 -10 10 0 6 5
10 10 10 6 0 10 -4 10 -10z m-34 -19 c-4 -5 0 -12 6 -14 7 -3 2 -6 -11 -6 -20
-1 -21 1 -11 14 14 16 25 21 16 6z m49 -21 c3 -6 -1 -7 -9 -4 -18 7 -21 14 -7
14 6 0 13 -4 16 -10z m-184 -1243 c-7 -7 -13 -2 -19 14 -6 16 -6 26 2 31 14 9
30 -32 17 -45z"/>
<path d="M1405 2820 c-3 -5 -2 -10 4 -10 5 0 13 5 16 10 3 6 2 10 -4 10 -5 0
-13 -4 -16 -10z"/>
<path d="M1860 2535 c-7 -9 -10 -18 -7 -21 3 -3 10 4 17 15 13 25 8 27 -10 6z"/>
</g>
</svg>
