<?xml version="1.0" standalone="no"?>
<!DOCTYPE svg PUBLIC "-//W3C//DTD SVG 20010904//EN"
 "http://www.w3.org/TR/2001/REC-SVG-20010904/DTD/svg10.dtd">
<svg version="1.0" xmlns="http://www.w3.org/2000/svg"
 width="433.000000pt" height="577.000000pt" viewBox="0 0 433.000000 577.000000"
 preserveAspectRatio="xMidYMid meet">

<g transform="translate(0.000000,577.000000) scale(0.100000,-0.100000)"
fill="#000000" stroke="none">
<path d="M2316 3733 c-57 -15 -125 -85 -175 -181 -7 -13 -32 -32 -57 -42 -24
-11 -61 -37 -82 -58 -20 -22 -53 -47 -72 -57 -48 -24 -129 -94 -165 -143 -21
-28 -43 -44 -70 -52 -22 -7 -64 -21 -93 -31 -30 -10 -68 -19 -86 -19 -18 0
-41 -7 -52 -15 -10 -8 -27 -15 -36 -15 -9 0 -21 -6 -25 -14 -15 -25 -76 -48
-152 -58 -41 -5 -79 -12 -85 -16 -6 -3 -23 -5 -38 -3 -34 3 -138 -26 -138 -39
0 -6 -13 -10 -29 -10 -16 0 -36 -6 -43 -13 -7 -7 -21 -16 -30 -20 -10 -3 -18
-12 -18 -19 0 -13 -62 -58 -79 -58 -5 0 -7 -15 -4 -34 5 -31 2 -36 -26 -51
-22 -11 -39 -32 -52 -62 -11 -25 -17 -48 -15 -51 10 -9 -27 -60 -51 -71 -13
-6 -37 -11 -53 -11 -16 0 -31 -4 -34 -8 -3 -5 -19 -9 -35 -10 -43 -1 -107 -41
-182 -113 -15 -14 -39 -33 -54 -43 -14 -9 -25 -22 -23 -28 2 -6 -18 -32 -44
-59 -26 -27 -48 -55 -48 -62 0 -6 -14 -25 -30 -41 -17 -16 -35 -48 -42 -70 -6
-23 -17 -48 -23 -56 -17 -22 -43 -81 -48 -110 -3 -14 -10 -38 -16 -53 -6 -16
-11 -51 -11 -79 l0 -50 78 6 c42 4 147 13 232 21 85 9 288 22 450 30 162 8
394 22 515 30 121 8 250 15 287 15 37 0 70 5 73 10 8 14 -11 69 -34 100 l-19
24 10 -40 c14 -52 7 -70 -32 -79 -45 -10 -61 7 -49 51 6 19 9 43 7 53 -2 11
11 30 31 47 33 27 40 29 120 29 67 0 92 -5 114 -19 27 -18 27 -18 27 3 0 11 8
29 18 39 18 18 19 47 1 36 -10 -6 -13 12 -9 81 2 38 8 56 28 75 13 14 31 39
38 57 8 18 21 36 30 41 8 5 24 22 35 38 11 16 19 22 18 14 -6 -53 15 -53 76 3
52 46 86 68 97 61 4 -3 21 2 39 11 17 9 33 14 37 11 3 -3 1 -6 -5 -6 -11 0
-124 -72 -156 -98 -13 -12 -15 -17 -5 -24 23 -14 56 -9 71 12 7 10 27 29 43
42 25 19 27 19 12 2 -13 -14 -15 -23 -7 -31 8 -8 7 -13 -2 -18 -8 -5 -10 -4
-5 3 9 15 -16 16 -31 1 -14 -14 4 -59 24 -59 18 0 17 -55 -2 -74 -8 -8 -15
-24 -15 -37 0 -19 -2 -20 -17 -8 -13 11 -17 11 -21 1 -2 -7 -10 -19 -18 -26
-8 -8 -14 -22 -14 -31 0 -9 -5 -13 -10 -10 -6 3 -13 -1 -16 -9 -3 -9 -9 -14
-14 -11 -4 2 -12 -6 -18 -19 -7 -17 -21 -25 -47 -28 -22 -2 -39 0 -41 7 -3 6
-13 11 -24 12 -15 1 -23 -8 -31 -38 -7 -21 -18 -39 -26 -39 -16 0 -16 -13 1
-70 7 -25 11 -51 9 -57 -5 -14 82 -18 150 -7 32 6 37 10 31 28 -3 11 -15 28
-25 36 -19 15 -19 16 10 38 19 14 45 22 69 22 39 0 83 22 70 36 -7 6 28 77 54
109 55 70 104 145 101 155 -1 3 17 4 40 2 58 -5 149 37 135 61 -11 21 -4 47
22 75 15 16 18 26 11 49 -5 15 -12 40 -15 54 -4 21 -12 26 -36 27 -36 1 -38
-12 -10 -84 10 -29 16 -54 13 -58 -11 -10 -75 -7 -68 4 3 6 0 10 -8 10 -7 0
-23 9 -35 20 -12 11 -26 20 -33 20 -6 0 -22 9 -36 20 l-26 20 33 0 c31 0 32 1
16 18 -15 18 -15 20 2 35 10 10 22 17 25 17 4 0 30 17 58 39 28 21 68 43 88
50 21 6 57 29 81 51 50 46 56 49 35 17 -23 -36 -22 -107 3 -153 12 -21 26 -51
32 -66 17 -48 52 -38 125 35 100 100 117 150 102 302 -3 27 -2 54 2 60 4 5 14
25 21 43 14 37 70 97 116 127 18 11 69 42 114 69 56 34 77 52 68 57 -8 4 -77
10 -153 14 -127 5 -244 20 -349 44 -22 5 -50 21 -63 35 -13 14 -28 26 -34 26
-5 0 -30 15 -56 34 l-46 33 -1 104 c-1 92 -4 108 -24 137 -21 29 -28 32 -75
31 -29 -1 -61 -4 -71 -6z m407 -978 c-3 -9 -8 -14 -10 -11 -3 3 -2 9 2 15 9
16 15 13 8 -4z m-26 -21 c-3 -3 -12 -4 -19 -1 -8 3 -5 6 6 6 11 1 17 -2 13 -5z
m-634 -81 c-7 -2 -21 -2 -30 0 -10 3 -4 5 12 5 17 0 24 -2 18 -5z m-70 -10
c-7 -2 -19 -2 -25 0 -7 3 -2 5 12 5 14 0 19 -2 13 -5z m-98 -23 c-11 -5 -27
-9 -35 -9 -13 -1 -13 0 0 9 8 5 24 9 35 9 l20 0 -20 -9z m229 -10 c-56 -8
-209 -76 -261 -116 -19 -14 -37 -24 -40 -21 -6 7 122 90 170 111 l32 14 -40 3
c-30 2 -22 4 30 9 39 4 90 7 115 7 l45 1 -51 -8z m7 -45 c-35 -13 -77 -33 -94
-45 -16 -12 -39 -23 -51 -24 -12 -2 -54 -27 -92 -56 l-69 -54 40 43 c61 65
118 101 213 131 106 35 141 38 53 5z"/>
<path d="M2340 2570 c0 -5 5 -10 11 -10 5 0 7 5 4 10 -3 6 -8 10 -11 10 -2 0
-4 -4 -4 -10z"/>
<path d="M2095 1979 c-4 -6 -5 -13 -2 -16 7 -7 27 6 27 18 0 12 -17 12 -25 -2z"/>
</g>
</svg>
