<?xml version="1.0" standalone="no"?>
<!DOCTYPE svg PUBLIC "-//W3C//DTD SVG 20010904//EN"
 "http://www.w3.org/TR/2001/REC-SVG-20010904/DTD/svg10.dtd">
<svg version="1.0" xmlns="http://www.w3.org/2000/svg"
 width="433.000000pt" height="577.000000pt" viewBox="0 0 433.000000 577.000000"
 preserveAspectRatio="xMidYMid meet">

<g transform="translate(0.000000,577.000000) scale(0.100000,-0.100000)"
fill="#000000" stroke="none">
<path d="M1919 4364 c-11 -28 -28 -308 -23 -383 1 -20 7 -49 13 -64 6 -16 11
-39 11 -52 0 -19 4 -22 23 -18 12 3 27 10 34 15 7 5 14 5 18 -2 3 -5 -1 -10
-10 -10 -13 0 -14 -4 -4 -22 8 -15 14 -18 17 -10 3 10 7 10 18 1 8 -6 11 -15
8 -20 -3 -5 -1 -9 5 -9 5 0 11 -10 13 -22 2 -12 9 -23 17 -26 11 -4 12 2 7 24
-4 16 -7 37 -7 46 0 10 -4 20 -10 23 -5 4 -9 1 -9 -5 0 -6 -4 -8 -10 -5 -17
10 12 32 37 27 32 -6 38 -20 18 -42 -19 -21 -12 -40 15 -40 10 0 22 -4 25 -10
11 -17 33 -11 29 8 -3 9 -1 28 4 41 l8 23 16 -24 c9 -14 18 -40 20 -58 2 -19
8 -35 13 -37 11 -3 36 69 39 112 2 39 13 29 25 -22 23 -107 24 -113 7 -113
-13 0 -16 -13 -16 -69 0 -39 -5 -73 -10 -76 -12 -7 -16 4 -25 67 -9 66 -33 93
-83 92 -22 -1 -51 -4 -65 -8 -25 -6 -25 -6 -12 -57 17 -64 24 -71 77 -78 37
-5 43 -10 46 -32 4 -32 -31 -67 -51 -50 -8 6 -16 9 -18 7 -2 -2 -15 11 -29 30
-14 18 -33 36 -43 39 -19 7 -47 54 -47 80 0 9 7 18 15 21 27 11 16 24 -20 24
-31 0 -35 3 -35 25 0 31 -11 32 -30 3 l-14 -23 -7 30 -7 30 -1 -35 c-1 -41 25
-150 40 -165 7 -7 8 -5 4 5 -3 9 1 24 9 35 12 17 15 18 30 3 9 -9 16 -23 16
-31 0 -19 19 -34 66 -51 l39 -15 -35 0 c-25 -1 -39 5 -48 19 -9 15 -21 19 -47
17 -30 -2 -34 -5 -29 -22 7 -24 51 -90 70 -106 8 -7 18 -9 22 -5 4 4 -1 13
-10 20 -24 17 -12 26 33 26 21 0 41 5 44 10 9 15 65 12 71 -4 3 -8 13 -12 25
-9 15 4 18 2 13 -11 -7 -19 -9 -19 -35 -5 -11 5 -17 14 -14 19 4 6 -3 6 -18 1
-14 -6 -27 -8 -30 -5 -2 3 -7 -2 -10 -10 -7 -16 53 -43 62 -27 9 13 50 -6 58
-26 3 -10 13 -26 21 -35 8 -10 12 -24 9 -33 -4 -10 -1 -15 10 -15 14 0 14 -2
-3 -15 -15 -11 -16 -15 -4 -16 8 0 26 -2 40 -4 28 -3 67 29 49 41 -7 4 5 21
30 46 23 21 40 46 39 55 -5 28 64 33 112 8 16 -8 35 -15 42 -15 7 0 31 -9 52
-21 50 -26 81 -19 95 23 16 46 -3 63 -53 50 -20 -6 -36 -8 -36 -5 0 3 16 20
35 38 25 24 31 35 20 38 -7 3 -19 -1 -25 -9 -7 -8 -18 -14 -25 -14 -7 0 -15
-7 -19 -15 -3 -8 -17 -15 -31 -15 -15 0 -24 -4 -20 -10 3 -5 3 -10 -2 -11 -4
0 -19 -3 -33 -5 -41 -7 -64 16 -55 55 6 30 9 31 41 25 58 -11 82 2 108 56 l24
49 -39 21 c-40 20 -94 26 -116 12 -7 -4 -24 -34 -38 -65 -21 -48 -29 -57 -45
-52 -16 5 -20 0 -26 -29 -3 -21 -12 -36 -20 -36 -17 0 -18 -12 -2 -28 7 -7 9
-12 5 -12 -4 0 -3 -9 3 -20 10 -18 8 -20 -17 -20 -15 0 -39 3 -51 7 -21 5 -23
10 -17 37 3 17 7 40 9 51 1 11 9 33 17 48 14 25 17 27 28 13 8 -9 18 -16 24
-16 6 0 8 3 4 6 -3 3 -1 20 5 36 10 28 12 29 24 14 11 -16 13 -16 18 1 13 47
18 93 8 93 -6 0 -4 19 6 48 33 92 47 95 57 12 4 -33 10 -60 14 -60 4 0 13 18
20 39 10 36 35 60 44 43 3 -4 4 -22 3 -40 -1 -36 10 -40 55 -17 25 13 28 20
23 43 -4 15 -12 30 -18 34 -7 5 -6 8 3 8 8 0 19 7 26 17 11 15 14 14 33 -5 12
-12 22 -27 22 -32 0 -6 9 -20 19 -31 20 -22 46 -17 37 7 -7 18 13 29 27 15 22
-22 52 -11 77 27 28 43 61 130 58 152 -1 8 3 35 9 60 14 56 33 161 33 181 0 8
-4 20 -9 28 -11 18 -51 5 -51 -17 -1 -39 -24 -57 -73 -59 -27 -2 -57 -8 -69
-14 -26 -14 -39 0 -13 15 11 6 38 29 60 51 34 33 37 40 21 43 -23 5 -72 -31
-68 -50 2 -7 0 -10 -3 -6 -18 18 -115 -64 -115 -97 0 -7 -6 -16 -12 -19 -10
-5 -10 -7 0 -12 14 -7 16 -42 3 -63 -5 -8 -14 -10 -21 -6 -10 6 -11 1 -6 -19
6 -25 6 -26 -14 -9 -11 10 -20 24 -20 31 0 9 -6 12 -15 8 -9 -3 -18 1 -22 10
-5 13 -8 13 -15 2 -7 -9 -8 -8 -4 5 3 10 6 23 6 28 0 5 7 9 16 9 12 0 15 -6
11 -21 -4 -15 -2 -19 8 -15 8 3 17 1 20 -5 11 -17 25 1 25 32 0 19 12 43 38
71 l37 42 -35 -21 c-48 -28 -125 -39 -145 -20 -8 8 -40 18 -72 21 -32 4 -73
10 -91 13 -28 5 -31 3 -26 -13 5 -17 4 -17 -8 1 -7 11 -20 21 -28 23 -23 4
-61 24 -96 49 -17 13 -33 21 -36 18 -6 -7 -49 49 -72 93 -10 19 -20 31 -23 28
-3 -3 -12 1 -20 9 -19 20 -47 20 -39 0 9 -24 -9 -17 -42 17 l-31 31 -12 -29z
m156 -124 c3 -6 -1 -7 -9 -4 -18 7 -21 14 -7 14 6 0 13 -4 16 -10z m115 -70
c20 -40 27 -124 11 -134 -12 -8 -21 29 -21 91 0 28 -4 55 -10 58 -5 3 -10 10
-10 16 0 18 10 8 30 -31z m82 -95 c-6 -35 -19 -31 -14 5 2 16 8 28 12 25 4 -2
5 -16 2 -30z m237 -12 c0 -33 -1 -35 -9 -15 -8 20 -4 52 6 52 2 0 4 -17 3 -37z
m-384 -23 c-3 -5 1 -10 10 -10 10 0 15 -7 13 -17 -2 -10 3 -24 12 -31 13 -11
13 -12 0 -10 -30 6 -62 78 -34 78 3 0 2 -4 -1 -10z m3 -73 c2 -9 -1 -17 -8
-17 -6 0 -33 -16 -61 -35 -28 -19 -56 -35 -63 -35 -7 0 -7 3 1 8 7 4 13 22 15
39 2 24 6 30 20 28 10 -2 18 1 18 6 0 6 5 7 10 4 6 -3 10 -2 10 4 0 10 27 20
45 16 6 -1 11 -9 13 -18z m584 -11 c11 -16 -22 -46 -49 -46 -14 0 -23 3 -21 8
26 54 32 60 47 54 9 -3 19 -10 23 -16z m62 -99 c-3 -10 -1 -17 5 -17 12 0 15
-46 4 -53 -5 -3 -17 -1 -28 4 -11 4 -17 8 -12 8 9 1 -58 67 -76 74 -18 8 13
28 34 23 9 -2 22 0 29 4 18 11 52 -23 44 -43z m-191 -6 c4 -17 2 -18 -14 -8
-13 8 -15 13 -6 19 7 4 13 8 13 8 1 0 4 -9 7 -19z m-458 -1 c3 -6 -1 -7 -9 -4
-18 7 -21 14 -7 14 6 0 13 -4 16 -10z m189 -286 c5 -14 4 -15 -9 -4 -17 14
-19 20 -6 20 5 0 12 -7 15 -16z m346 -162 c4 -3 -29 1 -60 7 -3 1 2 5 10 11 9
6 20 5 30 -3 8 -6 17 -13 20 -15z"/>
<path d="M2667 3769 c7 -7 15 -10 18 -7 3 3 -2 9 -12 12 -14 6 -15 5 -6 -5z"/>
<path d="M2689 3738 c-11 -34 3 -64 15 -33 3 8 1 15 -5 15 -6 0 -7 5 -4 10 3
6 4 10 1 10 -3 0 -6 -1 -7 -2z"/>
<path d="M2675 3670 c-3 -5 1 -10 10 -10 9 0 13 5 10 10 -3 6 -8 10 -10 10 -2
0 -7 -4 -10 -10z"/>
<path d="M2776 3611 c-8 -12 3 -41 15 -41 6 0 6 8 0 19 -6 10 -7 21 -4 25 3 3
4 6 0 6 -3 0 -8 -4 -11 -9z"/>
<path d="M2678 3577 c12 -13 22 -28 22 -33 0 -6 14 -25 32 -43 30 -30 33 -31
45 -15 32 43 7 84 -62 103 -57 15 -61 14 -37 -12z"/>
<path d="M2466 3398 c-13 -7 -13 -12 -3 -22 11 -13 52 -15 63 -3 18 18 -33 40
-60 25z"/>
<path d="M2035 3370 c-3 -5 3 -10 14 -10 11 0 23 5 26 10 3 6 -3 10 -14 10
-11 0 -23 -4 -26 -10z"/>
<path d="M2053 3353 c-23 -4 -86 -62 -104 -94 -5 -11 -16 -19 -23 -19 -39 0
-246 -110 -246 -131 0 -5 -7 -9 -16 -9 -8 0 -12 -4 -9 -10 3 -5 3 -10 -2 -10
-4 0 -27 -17 -49 -38 -23 -20 -65 -57 -95 -82 -29 -25 -63 -56 -75 -70 -13
-14 -68 -72 -123 -129 -56 -57 -99 -107 -96 -111 3 -5 1 -11 -5 -15 -5 -3 -10
-18 -10 -32 0 -15 -18 -61 -40 -104 -24 -47 -36 -80 -30 -84 6 -4 8 -11 4 -16
-6 -11 -8 -20 -23 -111 -5 -31 -12 -61 -15 -66 -8 -13 -16 -75 -22 -157 -2
-38 -6 -82 -9 -97 -2 -16 2 -31 10 -38 8 -7 15 -21 15 -31 0 -11 5 -19 11 -19
6 0 9 -5 7 -11 -5 -15 47 -70 90 -94 17 -11 32 -23 32 -27 0 -4 19 -20 42 -35
46 -31 94 -120 83 -155 -4 -10 -1 -26 6 -34 10 -12 10 -17 -1 -27 -10 -10 -12
-8 -7 6 4 11 3 16 -3 12 -6 -3 -10 -13 -10 -21 0 -8 -14 -33 -31 -54 -35 -43
-68 -132 -62 -165 5 -25 61 -65 91 -65 32 0 67 36 123 130 61 102 109 214 109
255 0 28 -48 120 -58 110 -2 -2 -14 0 -27 5 -16 6 -29 4 -44 -6 -11 -8 -21
-12 -21 -8 0 4 -7 -1 -15 -12 -8 -10 -15 -14 -15 -8 0 5 9 20 20 32 11 12 20
25 20 31 0 9 23 22 53 27 23 5 67 -24 67 -44 0 -8 3 -13 6 -10 3 4 -2 27 -11
54 -9 26 -12 50 -8 54 4 4 29 11 55 14 l48 7 68 -64 68 -64 78 -8 c72 -6 80
-5 101 15 27 26 40 61 19 53 -8 -3 -17 -16 -20 -29 -3 -13 -9 -24 -13 -25 -3
0 -21 -2 -38 -5 -25 -3 -33 0 -33 12 0 8 -6 14 -12 13 -24 -3 -58 13 -58 27 0
8 -10 14 -25 14 -14 0 -29 8 -35 19 -13 26 -13 31 3 26 6 -3 27 -7 45 -9 18
-2 41 -11 51 -20 17 -16 19 -16 25 -1 3 9 6 25 6 35 0 30 20 34 47 9 20 -19
25 -20 20 -6 -4 9 -4 24 -1 32 6 14 8 13 20 -2 12 -17 13 -17 14 -1 0 10 -14
33 -31 53 -42 48 -34 67 28 63 52 -3 56 -8 144 -172 53 -97 74 -112 184 -121
101 -8 129 -2 122 28 -3 12 -10 40 -16 62 -11 45 -8 53 14 35 12 -10 15 -9 16
6 1 14 3 13 9 -6 5 -17 8 -19 9 -7 1 14 11 17 54 17 28 0 68 5 88 10 40 11 45
32 19 83 -11 22 -11 33 -2 47 10 16 6 24 -21 52 -19 20 -31 41 -29 52 3 14 0
17 -13 12 -21 -7 -95 59 -95 85 0 20 29 34 34 16 13 -41 18 -48 38 -56 24 -9
45 9 33 29 -4 6 3 22 15 38 l22 27 -30 6 c-35 7 -52 17 -52 30 0 6 7 6 19 -1
11 -5 27 -7 35 -4 24 9 19 34 -6 35 -44 1 -68 6 -75 13 -9 9 24 36 43 36 6 0
32 11 57 25 35 20 47 33 54 63 l10 37 -44 1 c-24 1 -46 4 -50 8 -10 10 10 39
29 42 8 1 25 5 36 8 11 4 23 2 27 -4 12 -19 22 -10 33 29 7 21 12 41 12 44 0
3 -28 3 -61 1 -60 -4 -119 -32 -119 -55 0 -6 -15 -30 -33 -53 -28 -37 -36 -42
-55 -35 -20 8 -22 6 -17 -10 5 -17 -9 -31 -40 -37 -5 -1 -12 -3 -15 -4 -22 -8
-50 -8 -50 0 0 6 -7 10 -15 10 -8 0 -15 4 -15 9 0 5 8 7 19 4 12 -3 20 2 24
16 3 12 1 19 -3 16 -5 -3 -17 6 -26 20 -14 22 -24 26 -58 24 -59 -2 -68 0 -60
13 4 7 3 8 -5 4 -17 -11 -43 18 -28 33 18 18 -3 13 -39 -10 -25 -15 -34 -17
-34 -7 0 10 -3 9 -10 -2 -7 -11 -10 -6 -10 22 0 52 20 60 140 57 100 -3 130 6
130 38 0 7 8 16 18 20 9 3 31 17 49 29 17 13 43 28 58 34 34 13 43 39 20 56
-14 11 -20 11 -32 -2 -13 -13 -20 -15 -55 -18 -7 -1 -18 -8 -25 -16 -7 -8 -13
-11 -13 -6 0 5 -8 2 -18 -7 -10 -9 -29 -19 -43 -21 -13 -2 -24 -5 -24 -6 0 -1
-13 -3 -30 -4 -38 -3 -66 10 -59 28 7 19 -12 29 -33 18 -21 -12 -83 15 -77 33
3 7 24 13 50 13 25 1 48 3 53 6 4 3 20 -4 37 -15 16 -10 41 -19 56 -19 30 0
83 18 76 26 -6 5 -45 15 -65 16 -7 1 -13 5 -13 9 0 4 -9 5 -20 2 -11 -3 -20 0
-20 6 0 6 4 11 10 11 5 0 7 7 4 15 -4 8 -17 15 -30 15 -28 0 -29 4 -8 28 15
18 18 18 86 1 68 -17 117 -18 186 -4 37 8 41 20 10 36 -21 11 -21 12 16 31 29
15 47 18 79 12 23 -4 50 -8 59 -9 21 -2 37 -15 19 -15 -7 0 -9 -5 -5 -12 5 -9
2 -9 -9 1 -12 10 -17 10 -17 2 0 -8 -8 -10 -21 -6 -13 5 -19 3 -15 -3 9 -15
72 -24 123 -16 33 5 57 16 80 39 33 32 33 33 11 39 -14 3 -27 0 -34 -8 -13
-18 -96 -28 -91 -12 2 6 17 18 32 26 30 16 62 49 81 85 17 33 12 125 -8 136
-15 8 -16 5 -8 -23 11 -35 10 -36 -22 -52 -12 -6 -25 -22 -29 -36 -4 -14 -7
-21 -8 -15 -1 5 -8 -1 -17 -13 -9 -13 -21 -21 -27 -19 -7 2 -20 0 -29 -5 -15
-7 -14 -3 4 29 12 21 26 40 30 41 4 2 8 8 8 14 0 5 9 21 20 35 13 17 18 35 15
53 -4 21 1 30 20 40 19 10 22 16 14 27 -15 18 -33 17 -25 -2 3 -9 0 -15 -10
-15 -9 0 -12 -5 -8 -12 5 -8 2 -9 -11 -4 -18 6 -18 6 1 -15 l19 -23 -23 16
c-28 19 -66 12 -57 -10 5 -12 1 -12 -15 3 -27 25 -35 13 -15 -22 11 -17 11
-21 2 -10 -17 20 -37 23 -37 5 0 -8 -7 -5 -15 6 -15 19 -15 19 -15 -5 0 -19
-2 -21 -10 -9 -5 8 -10 11 -10 6 0 -5 -7 -3 -15 4 -8 7 -15 8 -15 3 0 -13 -45
-13 -120 -1 -59 10 -119 35 -144 59 -6 5 -18 9 -27 9 -9 0 -20 7 -23 16 -5 13
-9 14 -21 4 -13 -11 -14 -10 -9 5 6 14 4 16 -6 10 -10 -6 -12 -4 -7 8 3 9 0
18 -9 21 -8 3 -12 2 -9 -4 3 -5 -3 -13 -13 -19 -14 -7 -19 -6 -19 4 0 7 5 11
12 9 6 -3 11 5 12 16 1 11 -1 19 -5 19 -4 -1 -17 -4 -29 -6z m11 -103 c-16
-16 -33 -30 -38 -30 -6 0 5 16 24 35 18 19 36 33 38 30 3 -3 -8 -18 -24 -35z
m46 16 c0 -2 -8 -10 -17 -17 -16 -13 -17 -12 -4 4 13 16 21 21 21 13z m438
-124 c25 4 41 -10 35 -30 -4 -16 -13 -18 -64 -16 -32 1 -61 -2 -64 -6 -3 -5
-18 -3 -35 3 -35 13 -25 32 23 43 18 3 38 11 45 16 8 7 12 7 12 -1 0 -18 20
-12 21 7 1 16 2 16 6 -1 3 -10 12 -17 21 -15z m-191 -58 c-3 -3 -12 -4 -19 -1
-8 3 -5 6 6 6 11 1 17 -2 13 -5z m28 -140 c19 -14 17 -15 -30 -10 -27 2 -56 5
-63 5 -7 1 -10 6 -7 11 9 15 78 11 100 -6z m-699 -69 c1 -65 -3 -74 -27 -68
-14 4 -19 12 -16 24 3 11 1 22 -5 25 -6 4 -5 10 3 15 8 5 9 9 4 9 -6 0 -11 11
-11 25 0 22 4 25 26 23 23 -3 25 -7 26 -53z m127 -95 c-6 -23 -19 -26 -26 -6
-6 16 1 26 19 26 7 0 10 -8 7 -20z m-274 -59 l35 -18 -40 -5 c-46 -6 -59 -1
-45 16 6 7 8 16 4 19 -12 13 12 6 46 -12z m220 -90 c9 -17 8 -18 -11 -13 -14
3 -17 7 -9 10 11 4 11 6 0 13 -10 6 -10 9 -2 9 7 0 17 -9 22 -19z m17 -51 c0
-18 -15 -40 -28 -40 -6 0 -4 7 3 16 11 14 10 18 -6 31 -19 14 -19 14 5 11 14
-2 25 -10 26 -18z m-39 -50 c12 0 25 5 28 10 3 6 11 10 16 10 6 0 7 -4 4 -10
-3 -5 -2 -26 4 -45 6 -21 6 -37 0 -41 -5 -3 -9 2 -9 10 0 19 -35 21 -46 4 -5
-7 -7 -29 -5 -49 1 -20 -2 -40 -8 -44 -13 -8 -15 -45 -2 -45 5 0 11 -8 15 -17
3 -10 9 -24 12 -30 3 -7 2 -13 -4 -13 -5 0 -14 12 -21 26 -8 18 -17 25 -30 21
-13 -3 -22 3 -29 18 -13 27 -7 35 25 35 13 0 23 5 23 10 0 6 -4 10 -9 10 -4 0
-7 12 -5 28 4 29 -21 118 -40 141 -6 7 5 4 24 -8 19 -11 45 -21 57 -21z m-266
-47 c16 -10 31 -24 34 -33 3 -8 22 -33 44 -55 21 -22 37 -44 34 -49 -3 -4 1
-12 8 -17 12 -7 11 -9 -2 -9 -20 0 -69 23 -69 33 0 14 -28 37 -44 37 -9 0 -15
6 -13 12 1 7 -8 14 -20 16 -22 3 -41 32 -22 32 6 0 8 7 5 16 -6 15 0 34 11 34
2 0 18 -8 34 -17z m753 -89 c11 -10 14 -24 10 -41 -5 -17 -3 -24 4 -19 6 3 14
1 18 -5 4 -7 14 -2 29 15 20 23 24 24 35 11 7 -9 21 -13 31 -10 29 9 34 -34
21 -193 -6 -79 -7 -153 -3 -165 4 -12 6 -27 4 -34 -2 -7 1 -21 7 -32 6 -12 9
-21 6 -21 -2 0 -11 -3 -19 -6 -16 -6 -60 31 -70 60 -5 13 -13 17 -32 12 l-24
-6 18 32 c18 33 18 40 3 113 -7 40 -8 40 -50 37 -36 -3 -42 -1 -42 16 0 11 -3
28 -6 36 -5 12 6 21 40 37 25 11 46 22 46 24 0 2 3 10 6 19 4 10 1 16 -9 16
-9 0 -19 9 -22 20 -6 20 -7 20 -33 2 -40 -28 -59 -32 -72 -17 -15 18 -7 31 31
50 16 9 29 21 29 28 0 11 19 37 26 37 2 0 10 -7 18 -16z m-751 -59 c-3 -9 -8
-14 -10 -11 -3 3 -2 9 2 15 9 16 15 13 8 -4z m27 -39 c0 -2 -8 -10 -17 -17
-16 -13 -17 -12 -4 4 13 16 21 21 21 13z m-87 -52 c-32 -29 -33 -29 -33 -3 0
11 4 18 9 15 5 -3 14 1 21 9 7 8 16 12 21 9 5 -3 -3 -16 -18 -30z m367 -17 c0
-5 -4 -5 -10 -2 -5 3 -10 14 -10 23 0 15 2 15 10 2 5 -8 10 -19 10 -23z m-60
-38 c0 -10 5 -21 11 -25 6 -3 19 -20 30 -38 20 -32 27 -20 8 15 -19 37 -2 45
19 9 l22 -35 0 28 c0 15 -4 27 -10 27 -5 0 -10 6 -10 13 1 6 9 2 19 -9 14 -18
21 -20 37 -11 17 9 17 9 6 -6 -8 -9 -11 -25 -7 -37 7 -22 7 -22 -80 -22 -27
-1 -54 -6 -58 -12 -6 -8 -10 -7 -14 2 -2 6 -9 10 -14 6 -5 -3 -9 4 -9 16 0 12
-4 19 -9 15 -6 -3 -15 11 -20 32 -15 51 -14 55 8 44 23 -13 31 -5 31 28 l1 26
19 -24 c11 -13 20 -31 20 -42z m133 21 c-3 -11 -9 -17 -15 -14 -5 3 -4 12 3
20 16 19 18 18 12 -6z m151 14 c9 -3 16 -10 16 -14 0 -8 -58 4 -68 15 -7 7 33
6 52 -1z m100 -116 c-18 -28 -104 -33 -104 -5 0 8 19 12 55 13 32 1 52 -2 49
-8z m112 -96 c-16 -15 -25 -20 -21 -12 13 25 38 50 44 45 3 -3 -8 -18 -23 -33z
m-751 -143 c19 -17 35 -36 35 -43 0 -6 -7 -3 -15 8 -11 14 -24 17 -59 14 -38
-3 -47 0 -52 16 -7 20 10 36 38 36 10 0 33 -14 53 -31z m59 -85 c5 -14 4 -15
-9 -4 -17 14 -19 20 -6 20 5 0 12 -7 15 -16z m871 -44 c4 -6 4 -18 0 -28 -5
-14 -7 -14 -15 -2 -5 8 -15 15 -21 15 -7 0 -14 6 -16 13 -6 15 43 17 52 2z"/>
<path d="M2625 3320 c3 -5 8 -10 11 -10 2 0 4 5 4 10 0 6 -5 10 -11 10 -5 0
-7 -4 -4 -10z"/>
<path d="M2587 3299 c7 -7 15 -10 18 -7 3 3 -2 9 -12 12 -14 6 -15 5 -6 -5z"/>
<path d="M2783 3022 c-8 -5 -9 -13 -3 -22 7 -12 10 -12 16 3 8 21 3 29 -13 19z"/>
<path d="M2606 2852 c-3 -6 1 -13 10 -16 23 -9 28 -2 10 13 -8 7 -17 8 -20 3z"/>
<path d="M2553 2795 c-3 -9 -4 -17 -2 -19 37 -35 106 -76 133 -82 45 -8 46
-19 1 -35 -39 -14 -46 -29 -15 -29 11 0 20 4 20 9 0 5 8 8 17 7 10 0 23 12 32
29 8 16 21 36 28 44 17 17 13 57 -6 53 -48 -10 -117 1 -142 24 -21 19 -58 18
-66 -1z"/>
<path d="M2595 2699 c-4 -6 0 -18 9 -27 15 -15 16 -15 16 5 0 25 -15 38 -25
22z"/>
<path d="M2315 2590 c-11 -17 5 -32 21 -19 7 6 11 15 8 20 -7 12 -21 11 -29
-1z"/>
</g>
</svg>
