<svg id="visual" viewBox="0 0 1100 800" width="1100" height="800" xmlns="http://www.w3.org/2000/svg" xmlns:xlink="http://www.w3.org/1999/xlink" version="1.1"><rect x="0" y="0" width="1100" height="800" fill="#FFF8EA"></rect><path d="M0 183L26.2 178.2C52.3 173.3 104.7 163.7 157 164.7C209.3 165.7 261.7 177.3 314 181.5C366.3 185.7 418.7 182.3 471.2 183C523.7 183.7 576.3 188.3 628.8 180.8C681.3 173.3 733.7 153.7 786 150.5C838.3 147.3 890.7 160.7 943 164.2C995.3 167.7 1047.7 161.3 1073.8 158.2L1100 155L1100 0L1073.8 0C1047.7 0 995.3 0 943 0C890.7 0 838.3 0 786 0C733.7 0 681.3 0 628.8 0C576.3 0 523.7 0 471.2 0C418.7 0 366.3 0 314 0C261.7 0 209.3 0 157 0C104.7 0 52.3 0 26.2 0L0 0Z" fill="#881337"></path><path d="M0 160L26.2 154.5C52.3 149 104.7 138 157 127.7C209.3 117.3 261.7 107.7 314 108C366.3 108.3 418.7 118.7 471.2 128.7C523.7 138.7 576.3 148.3 628.8 144.3C681.3 140.3 733.7 122.7 786 113.8C838.3 105 890.7 105 943 114.7C995.3 124.3 1047.7 143.7 1073.8 153.3L1100 163L1100 0L1073.8 0C1047.7 0 995.3 0 943 0C890.7 0 838.3 0 786 0C733.7 0 681.3 0 628.8 0C576.3 0 523.7 0 471.2 0C418.7 0 366.3 0 314 0C261.7 0 209.3 0 157 0C104.7 0 52.3 0 26.2 0L0 0Z" fill="#903344"></path><path d="M0 125L26.2 123.3C52.3 121.7 104.7 118.3 157 113C209.3 107.7 261.7 100.3 314 93.5C366.3 86.7 418.7 80.3 471.2 76.3C523.7 72.3 576.3 70.7 628.8 72C681.3 73.3 733.7 77.7 786 85.5C838.3 93.3 890.7 104.7 943 102.8C995.3 101 1047.7 86 1073.8 78.5L1100 71L1100 0L1073.8 0C1047.7 0 995.3 0 943 0C890.7 0 838.3 0 786 0C733.7 0 681.3 0 628.8 0C576.3 0 523.7 0 471.2 0C418.7 0 366.3 0 314 0C261.7 0 209.3 0 157 0C104.7 0 52.3 0 26.2 0L0 0Z" fill="#964b53"></path><path d="M0 69L26.2 70C52.3 71 104.7 73 157 73.2C209.3 73.3 261.7 71.7 314 69C366.3 66.3 418.7 62.7 471.2 62.8C523.7 63 576.3 67 628.8 68.2C681.3 69.3 733.7 67.7 786 68.3C838.3 69 890.7 72 943 75.5C995.3 79 1047.7 83 1073.8 85L1100 87L1100 0L1073.8 0C1047.7 0 995.3 0 943 0C890.7 0 838.3 0 786 0C733.7 0 681.3 0 628.8 0C576.3 0 523.7 0 471.2 0C418.7 0 366.3 0 314 0C261.7 0 209.3 0 157 0C104.7 0 52.3 0 26.2 0L0 0Z" fill="#9b6164"></path><path d="M0 58L26.2 54.2C52.3 50.3 104.7 42.7 157 36.3C209.3 30 261.7 25 314 26.7C366.3 28.3 418.7 36.7 471.2 37C523.7 37.3 576.3 29.7 628.8 26.2C681.3 22.7 733.7 23.3 786 27.3C838.3 31.3 890.7 38.7 943 38.5C995.3 38.3 1047.7 30.7 1073.8 26.8L1100 23L1100 0L1073.8 0C1047.7 0 995.3 0 943 0C890.7 0 838.3 0 786 0C733.7 0 681.3 0 628.8 0C576.3 0 523.7 0 471.2 0C418.7 0 366.3 0 314 0C261.7 0 209.3 0 157 0C104.7 0 52.3 0 26.2 0L0 0Z" fill="#9e7676"></path></svg>