<?xml version="1.0" standalone="no"?>
<!DOCTYPE svg PUBLIC "-//W3C//DTD SVG 20010904//EN"
 "http://www.w3.org/TR/2001/REC-SVG-20010904/DTD/svg10.dtd">
<svg version="1.0" xmlns="http://www.w3.org/2000/svg"
 width="433.000000pt" height="577.000000pt" viewBox="0 0 433.000000 577.000000"
 preserveAspectRatio="xMidYMid meet">

<g transform="translate(0.000000,577.000000) scale(0.100000,-0.100000)"
fill="#000000" stroke="none">
<path d="M2164 4486 c-36 -16 -42 -27 -48 -98 -3 -29 -3 -45 0 -35 4 12 11 16
22 12 9 -3 45 -1 79 6 55 11 67 11 98 -4 26 -12 35 -23 35 -40 0 -14 8 -35 19
-48 10 -13 21 -34 25 -47 5 -14 12 -19 19 -15 7 4 20 6 29 5 12 -2 15 2 11 19
-5 18 -3 21 10 16 8 -3 17 0 20 6 7 19 -5 117 -14 117 -5 0 -9 7 -9 15 0 8 -9
24 -20 35 -18 18 -20 18 -29 2 -9 -14 -11 -12 -12 13 -1 18 -3 23 -6 12 -5
-19 -30 -18 -26 1 2 8 -6 8 -27 0 -32 -10 -66 4 -54 23 3 5 0 9 -5 9 -6 0 -11
-5 -11 -11 0 -5 -10 -3 -22 5 -27 19 -43 19 -84 2z m76 -56 c0 -13 -7 -20 -19
-20 -22 0 -36 26 -18 34 25 10 37 5 37 -14z m-63 4 c-3 -3 -12 -4 -19 -1 -8 3
-5 6 6 6 11 1 17 -2 13 -5z m93 -4 c0 -5 -2 -10 -4 -10 -3 0 -8 5 -11 10 -3 6
-1 10 4 10 6 0 11 -4 11 -10z m205 -150 c3 -5 -1 -10 -10 -10 -9 0 -13 5 -10
10 3 6 8 10 10 10 2 0 7 -4 10 -10z"/>
<path d="M2255 4251 c-35 -7 -46 -38 -19 -58 24 -17 37 -17 30 2 -4 12 3 15
29 15 24 0 35 5 35 15 0 12 -32 38 -42 34 -2 -1 -16 -4 -33 -8z m52 -17 c-3
-3 -12 -4 -19 -1 -8 3 -5 6 6 6 11 1 17 -2 13 -5z"/>
<path d="M2124 4224 c3 -9 6 -20 6 -25 0 -6 4 -8 9 -4 5 3 12 1 16 -5 9 -14
25 -12 25 3 0 17 -32 47 -49 47 -8 0 -11 -6 -7 -16z"/>
<path d="M2470 4198 c-10 -28 -24 -47 -42 -56 -16 -7 -28 -18 -28 -23 0 -6 5
-7 12 -3 6 4 16 0 22 -8 9 -13 17 -14 46 -4 31 10 35 15 32 44 -1 18 -8 46
-15 63 l-12 31 -15 -44z"/>
<path d="M2210 4113 c-59 -29 -64 -48 -19 -67 26 -11 28 -14 13 -20 -27 -10
-2 -28 30 -20 14 3 26 13 26 21 0 9 -6 13 -15 9 -8 -3 -15 -1 -15 5 0 6 12 9
28 7 18 -2 26 -8 24 -18 -3 -11 -1 -12 8 -4 20 19 7 47 -27 58 -26 9 -30 14
-22 29 12 21 13 21 -31 0z"/>
<path d="M2377 4070 c-18 -30 -111 -90 -143 -91 -16 0 -15 -2 5 -10 20 -8 22
-14 17 -44 -6 -32 -5 -35 16 -35 24 0 40 22 100 144 31 62 34 86 5 36z"/>
<path d="M2130 3862 c0 -12 19 -26 26 -19 2 2 -2 10 -11 17 -9 8 -15 8 -15 2z"/>
<path d="M2157 3789 c-5 -17 -9 -19 -26 -10 -11 7 -22 7 -25 2 -4 -5 -18 -6
-34 -2 -25 7 -71 -4 -73 -18 -5 -32 -3 -93 3 -97 9 -6 -170 -184 -184 -184 -5
0 -6 5 -2 12 4 7 3 8 -4 4 -17 -10 -15 -24 6 -29 16 -4 16 -5 0 -6 -10 0 -18
-9 -18 -19 0 -10 -6 -24 -12 -31 -11 -10 -10 -11 5 -6 10 4 17 2 17 -4 0 -7
-7 -14 -16 -18 -12 -4 -14 -14 -9 -47 7 -39 6 -40 -10 -21 -9 11 -14 14 -10 7
4 -7 -3 -32 -15 -55 -13 -23 -28 -58 -35 -77 -7 -19 -24 -60 -38 -91 -23 -51
-24 -56 -8 -52 15 4 47 61 50 88 0 3 12 27 26 55 14 27 25 56 25 65 0 8 5 15
10 15 14 0 13 -8 -14 -86 -18 -55 -21 -74 -12 -94 12 -28 26 -41 38 -34 4 3
25 35 47 72 52 89 87 122 126 118 16 -2 39 0 50 4 11 4 32 10 48 14 27 6 27 6
27 -43 0 -46 2 -50 36 -70 43 -25 44 -26 44 -3 1 16 1 16 11 0 11 -19 49 -25
49 -8 0 6 -7 27 -15 47 -18 42 -19 53 -5 53 6 0 10 -7 10 -16 0 -15 2 -15 26
1 14 9 27 15 28 13 6 -10 26 -102 26 -121 0 -18 5 -22 32 -21 l33 1 8 93 c9
115 19 136 36 81 6 -23 16 -41 21 -41 5 0 5 14 -1 32 -5 18 -9 34 -9 36 0 2
23 1 50 -3 40 -6 50 -4 50 8 0 8 -7 20 -16 28 -16 13 -45 63 -44 76 0 5 -15
12 -32 16 -41 11 -43 13 -30 29 17 22 21 124 6 169 -14 39 -13 43 10 86 l26
45 -38 -7 c-27 -4 -51 0 -86 14 -26 12 -60 21 -76 21 -15 0 -33 7 -40 15 -18
21 -37 19 -43 -6z m-100 -146 c-7 -40 -6 -80 2 -131 9 -64 9 -77 -7 -110 -13
-29 -23 -37 -45 -37 -15 -1 -27 3 -27 7 0 11 39 49 64 63 16 9 16 15 -3 95
-28 113 -27 144 2 158 12 6 22 11 23 11 1 1 -3 -25 -9 -56z m255 -71 c6 -7 12
-24 14 -37 2 -24 0 -25 -51 -22 -29 2 -65 11 -80 21 -31 20 -28 30 5 18 18 -7
29 -2 59 29 29 31 37 35 40 21 2 -9 8 -23 13 -30z m-55 -201 c14 -32 13 -36
-3 -48 -40 -30 -70 -13 -66 37 3 30 7 37 19 33 12 -5 14 -1 8 18 -7 22 -7 23
10 9 10 -8 25 -30 32 -49z m-409 -20 c20 -10 43 -16 50 -14 6 3 12 0 12 -6 0
-6 -7 -11 -17 -11 -9 0 -13 -3 -10 -7 9 -9 -13 -34 -24 -27 -16 10 -9 26 8 20
15 -6 15 -5 -1 13 -10 11 -23 18 -29 14 -6 -4 -7 -1 -2 7 6 10 4 12 -9 7 -9
-4 -15 -3 -11 2 3 5 -1 12 -7 14 -7 3 -9 6 -5 6 4 1 24 -7 45 -18z m36 3 c6
-15 4 -15 -11 -3 -10 7 -20 15 -22 16 -2 2 3 3 11 3 9 0 19 -7 22 -16z"/>
<path d="M2276 3545 c3 -7 -2 -15 -13 -18 -15 -4 -15 -5 3 -6 25 -1 40 25 19
33 -9 3 -12 0 -9 -9z"/>
<path d="M2430 3585 c7 -9 15 -13 17 -11 7 7 -7 26 -19 26 -6 0 -6 -6 2 -15z"/>
<path d="M1847 3549 c7 -7 15 -10 18 -7 3 3 -2 9 -12 12 -14 6 -15 5 -6 -5z"/>
<path d="M2146 3052 c-4 -7 -16 -12 -27 -12 -10 0 -19 -4 -19 -9 0 -15 60 -74
68 -67 4 4 0 13 -9 19 -12 9 -14 18 -7 36 10 28 6 52 -6 33z"/>
<path d="M2320 3016 c0 -18 25 -66 33 -63 18 6 15 47 -4 58 -18 9 -29 12 -29
5z"/>
<path d="M2090 2895 c0 -8 42 -44 53 -45 17 0 5 17 -23 33 -16 10 -30 15 -30
12z"/>
<path d="M1624 2853 c-15 -21 -34 -44 -40 -50 -16 -17 -38 -83 -30 -91 12 -11
29 17 29 47 0 17 6 32 13 35 11 4 13 -55 12 -302 -1 -169 0 -480 1 -692 2
-365 3 -388 22 -418 l19 -33 -27 -46 c-15 -26 -49 -67 -75 -92 -38 -36 -48
-52 -48 -78 0 -23 6 -36 21 -44 37 -19 85 -2 144 54 32 30 78 61 108 73 l52
20 0 69 c0 66 1 68 29 78 26 9 28 12 21 46 -3 20 -10 65 -14 101 -7 57 -5 68
12 92 18 25 19 33 9 80 -6 29 -14 119 -17 199 l-7 146 36 71 c30 59 36 82 36
134 0 62 12 100 26 85 4 -4 19 -35 34 -69 15 -35 51 -117 79 -183 29 -66 72
-152 97 -191 35 -57 44 -81 44 -117 0 -25 6 -52 13 -59 25 -25 41 -63 48 -116
5 -36 17 -65 36 -88 59 -73 72 -96 83 -147 6 -29 23 -70 38 -91 26 -38 27 -45
27 -160 l0 -121 67 0 c105 0 133 38 118 160 -4 34 -3 65 2 72 6 7 5 19 -1 32
-15 28 -14 51 4 51 22 0 18 31 -14 112 -28 70 -40 115 -76 278 -28 126 -45
170 -119 305 l-71 130 -5 165 c-4 111 -10 173 -19 190 -8 13 -14 33 -15 44 -1
24 -32 41 -120 66 -53 15 -61 20 -61 41 0 15 -7 25 -18 27 -11 2 -17 -3 -17
-15 0 -15 2 -16 10 -3 8 12 10 11 10 -7 l0 -21 -67 20 c-82 24 -95 34 -91 66
3 27 5 26 -187 119 -66 32 -123 59 -126 61 -3 1 -19 -14 -35 -35z"/>
<path d="M2285 2768 c22 -25 41 -42 43 -38 6 16 -16 45 -50 65 l-33 19 40 -46z"/>
<path d="M2006 2691 c-4 -7 -5 -15 -2 -18 9 -9 19 4 14 18 -4 11 -6 11 -12 0z"/>
<path d="M1680 34 c-57 -33 -58 -34 -27 -34 25 0 87 43 77 54 -3 3 -26 -6 -50
-20z"/>
</g>
</svg>
